<?xml version="1.0" encoding="UTF-8" standalone="no"?>
<!-- Created with Inkscape (http://www.inkscape.org/) -->

<svg
   width="210mm"
   height="210mm"
   viewBox="0 0 210 210"
   version="1.1"
   id="svg1"
   xml:space="preserve"
   inkscape:version="1.4.2 (f4327f4, 2025-05-13)"
   sodipodi:docname="kbrf.svg"
   xmlns:inkscape="http://www.inkscape.org/namespaces/inkscape"
   xmlns:sodipodi="http://sodipodi.sourceforge.net/DTD/sodipodi-0.dtd"
   xmlns="http://www.w3.org/2000/svg"
   xmlns:svg="http://www.w3.org/2000/svg"><sodipodi:namedview
     id="namedview1"
     pagecolor="#505050"
     bordercolor="#ffffff"
     borderopacity="1"
     inkscape:showpageshadow="0"
     inkscape:pageopacity="0"
     inkscape:pagecheckerboard="1"
     inkscape:deskcolor="#505050"
     inkscape:document-units="mm"
     showgrid="true"
     inkscape:zoom="0.76167929"
     inkscape:cx="445.06921"
     inkscape:cy="575.70162"
     inkscape:window-width="1920"
     inkscape:window-height="1057"
     inkscape:window-x="-8"
     inkscape:window-y="-8"
     inkscape:window-maximized="1"
     inkscape:current-layer="layer1"><inkscape:grid
       id="grid4"
       units="mm"
       originx="0"
       originy="0"
       spacingx="0.99999998"
       spacingy="0.99999998"
       empcolor="#0099e5"
       empopacity="0.30196078"
       color="#0099e5"
       opacity="0.14901961"
       empspacing="5"
       enabled="true"
       visible="true" /></sodipodi:namedview><defs
     id="defs1"><inkscape:path-effect
       effect="fillet_chamfer"
       id="path-effect4"
       is_visible="true"
       lpeversion="1"
       nodesatellites_param="F,0,0,1,0,0,0,1 @ F,0,0,1,0,0,0,1 @ F,0,0,1,0,0,0,1 @ F,0,0,1,0,0,0,1 @ F,0,0,1,0,0,0,1 @ F,0,0,1,0,0,0,1 @ F,0,0,1,0,0,0,1 @ F,0,0,1,0,0,0,1 @ F,0,0,1,0,0,0,1 @ F,0,0,1,0,0,0,1 @ F,0,0,1,0,0,0,1 @ F,0,0,1,0,0,0,1 @ F,0,0,1,0,0,0,1 @ F,0,0,1,0,0,0,1 @ F,0,0,1,0,0,0,1 @ F,0,0,1,0,0,0,1 @ F,0,0,1,0,0,0,1 @ F,0,0,1,0,0,0,1 @ F,0,0,1,0,0,0,1 @ F,0,0,1,0,0,0,1 @ F,0,0,1,0,0,0,1 @ F,0,0,1,0,0,0,1 @ F,0,0,1,0,0,0,1 @ F,0,0,1,0,0,0,1 @ F,0,0,1,0,0,0,1 @ F,0,0,1,0,0,0,1 @ F,0,0,1,0,0,0,1 @ F,0,0,1,0,0,0,1 @ F,0,0,1,0,0,0,1 @ F,0,0,1,0,0,0,1 @ F,0,0,1,0,0,0,1 @ F,0,0,1,0,0,0,1 @ F,0,0,1,0,0,0,1 @ F,0,0,1,0,0,0,1 @ F,0,0,1,0,0,0,1 @ F,0,0,1,0,0,0,1 @ F,0,0,1,0,0,0,1 @ F,0,0,1,0,0,0,1 @ F,0,0,1,0,0,0,1 @ F,0,0,1,0,0,0,1 @ F,0,0,1,0,0,0,1 @ F,0,0,1,0,0,0,1 @ F,0,0,1,0,0,0,1 @ F,0,0,1,0,0,0,1 @ F,0,0,1,0,0,0,1 @ F,0,0,1,0,0,0,1 @ F,0,0,1,0,0,0,1 @ F,0,0,1,0,0,0,1 @ F,0,0,1,0,0,0,1 @ F,0,0,1,0,0,0,1 @ F,0,0,1,0,0,0,1 @ F,0,0,1,0,0,0,1 @ F,0,0,1,0,0,0,1 @ F,0,0,1,0,0,0,1 @ F,0,0,1,0,0,0,1 @ F,0,0,1,0,0,0,1 @ F,0,0,1,0,0,0,1 @ F,0,0,1,0,0,0,1 @ F,0,0,1,0,0,0,1 @ F,0,0,1,0,0,0,1 @ F,0,0,1,0,0,0,1 @ F,0,0,1,0,0,0,1 @ F,0,0,1,0,0,0,1 @ F,0,0,1,0,0,0,1 @ F,0,0,1,0,0,0,1 @ F,0,0,1,0,0,0,1 @ F,0,0,1,0,0,0,1 @ F,0,0,1,0,0,0,1 @ F,0,0,1,0,0,0,1 @ F,0,0,1,0,0,0,1 @ F,0,0,1,0,0,0,1 @ F,0,0,1,0,0,0,1 @ F,0,0,1,0,0,0,1 @ F,0,0,1,0,0,0,1 @ F,0,0,1,0,0,0,1 @ F,0,0,1,0,0,0,1 @ F,0,0,1,0,0,0,1 @ F,0,0,1,0,0,0,1 @ F,0,0,1,0,0,0,1 @ F,0,0,1,0,0,0,1 @ F,0,0,1,0,0,0,1 @ F,0,0,1,0,0,0,1 @ F,0,0,1,0,0,0,1 @ F,0,0,1,0,0,0,1 @ F,0,0,1,0,0,0,1 @ F,0,0,1,0,0,0,1 @ F,0,0,1,0,0,0,1 @ F,0,0,1,0,0,0,1 @ F,0,0,1,0,0,0,1 @ F,0,0,1,0,0,0,1 @ F,0,0,1,0,0,0,1 @ F,0,0,1,0,0,0,1 @ F,0,0,1,0,0,0,1 @ F,0,0,1,0,0,0,1 @ F,0,0,1,0,0,0,1 @ F,0,0,1,0,0,0,1 @ F,0,0,1,0,0,0,1 @ F,0,0,1,0,0,0,1 @ F,0,0,1,0,0,0,1 @ F,0,0,1,0,0,0,1 @ F,0,0,1,0,0,0,1 @ F,0,0,1,0,0,0,1 @ F,0,0,1,0,0,0,1 @ F,0,0,1,0,0,0,1 @ F,0,0,1,0,0,0,1 @ F,0,0,1,0,0,0,1 @ F,0,0,1,0,0,0,1"
       radius="0"
       unit="px"
       method="auto"
       mode="F"
       chamfer_steps="1"
       flexible="false"
       use_knot_distance="true"
       apply_no_radius="true"
       apply_with_radius="true"
       only_selected="false"
       hide_knots="false" /><inkscape:path-effect
       effect="fillet_chamfer"
       id="path-effect3"
       is_visible="true"
       lpeversion="1"
       nodesatellites_param="F,0,0,1,0,0,0,1 @ F,0,0,1,0,0,0,1 @ F,0,0,1,0,0,0,1 @ F,0,0,1,0,0,0,1 @ F,0,0,1,0,0,0,1 @ F,0,0,1,0,0,0,1 @ F,0,0,1,0,0,0,1 @ F,0,0,1,0,0,0,1 @ F,0,0,1,0,0,0,1 @ F,0,0,1,0,0,0,1 @ F,0,0,1,0,0,0,1 @ F,0,0,1,0,0,0,1 @ F,0,0,1,0,0,0,1 @ F,0,0,1,0,0,0,1 @ F,0,0,1,0,0,0,1 @ F,0,0,1,0,0,0,1 @ F,0,0,1,0,0,0,1 @ F,0,0,1,0,0,0,1 @ F,0,0,1,0,0,0,1 @ F,0,0,1,0,0,0,1 @ F,0,0,1,0,0,0,1 @ F,0,0,1,0,0,0,1 @ F,0,0,1,0,0,0,1 @ F,0,0,1,0,0,0,1 @ F,0,0,1,0,0,0,1 @ F,0,0,1,0,0,0,1 @ F,0,0,1,0,0,0,1 @ F,0,0,1,0,0,0,1 @ F,0,0,1,0,0,0,1 @ F,0,0,1,0,0,0,1 @ F,0,0,1,0,0,0,1 @ F,0,0,1,0,0,0,1 @ F,0,0,1,0,0,0,1 @ F,0,0,1,0,0,0,1 @ F,0,0,1,0,0,0,1 @ F,0,0,1,0,0,0,1 @ F,0,0,1,0,0,0,1 @ F,0,0,1,0,0,0,1 @ F,0,0,1,0,0,0,1 @ F,0,0,1,0,0,0,1 @ F,0,0,1,0,0,0,1 @ F,0,0,1,0,0,0,1 @ F,0,0,1,0,0,0,1 @ F,0,0,1,0,0,0,1 @ F,0,0,1,0,0,0,1 @ F,0,0,1,0,0,0,1 @ F,0,0,1,0,0,0,1 @ F,0,0,1,0,0,0,1 @ F,0,0,1,0,0,0,1 @ F,0,0,1,0,0,0,1 @ F,0,0,1,0,0,0,1 @ F,0,0,1,0,0,0,1 @ F,0,0,1,0,0,0,1 @ F,0,0,1,0,0,0,1 @ F,0,0,1,0,0,0,1 @ F,0,0,1,0,0,0,1 @ F,0,0,1,0,0,0,1 @ F,0,0,1,0,0,0,1 @ F,0,0,1,0,0,0,1 @ F,0,0,1,0,0,0,1 @ F,0,0,1,0,0,0,1 @ F,0,0,1,0,0,0,1 @ F,0,0,1,0,0,0,1 @ F,0,0,1,0,0,0,1 @ F,0,0,1,0,0,0,1 @ F,0,0,1,0,0,0,1 @ F,0,0,1,0,0,0,1 @ F,0,0,1,0,0,0,1 @ F,0,0,1,0,0,0,1 @ F,0,0,1,0,0,0,1 @ F,0,0,1,0,0,0,1 @ F,0,0,1,0,0,0,1 @ F,0,0,1,0,0,0,1 @ F,0,0,1,0,0,0,1 @ F,0,0,1,0,0,0,1 @ F,0,0,1,0,0,0,1 @ F,0,0,1,0,0,0,1 @ F,0,0,1,0,0,0,1 @ F,0,0,1,0,0,0,1 @ F,0,0,1,0,0,0,1 @ F,0,0,1,0,0,0,1 @ F,0,0,1,0,0,0,1 @ F,0,0,1,0,0,0,1 @ F,0,0,1,0,0,0,1 @ F,0,0,1,0,0,0,1 @ F,0,0,1,0,0,0,1 @ F,0,0,1,0,0,0,1 @ F,0,0,1,0,0,0,1 @ F,0,0,1,0,0,0,1 @ F,0,0,1,0,0,0,1 @ F,0,0,1,0,0,0,1 @ F,0,0,1,0,0,0,1 @ F,0,0,1,0,0,0,1 @ F,0,0,1,0,0,0,1 @ F,0,0,1,0,0,0,1 @ F,0,0,1,0,0,0,1 @ F,0,0,1,0,0,0,1 @ F,0,0,1,0,0,0,1 @ F,0,0,1,0,0,0,1 @ F,0,0,1,0,0,0,1 @ F,0,0,1,0,0,0,1 @ F,0,0,1,0,0,0,1 @ F,0,0,1,0,0,0,1 @ F,0,0,1,0,0,0,1 @ F,0,0,1,0,0,0,1 @ F,0,0,1,0,0,0,1 @ F,0,0,1,0,0,0,1"
       radius="0"
       unit="px"
       method="auto"
       mode="F"
       chamfer_steps="1"
       flexible="false"
       use_knot_distance="true"
       apply_no_radius="true"
       apply_with_radius="true"
       only_selected="false"
       hide_knots="false" /><inkscape:path-effect
       effect="fillet_chamfer"
       id="path-effect2"
       is_visible="true"
       lpeversion="1"
       nodesatellites_param="F,0,0,1,0,0,0,1 @ F,0,0,1,0,0,0,1 @ F,0,0,1,0,0,0,1 @ F,0,0,1,0,0,0,1 @ F,0,0,1,0,0,0,1 @ F,0,0,1,0,0,0,1 @ F,0,0,1,0,0,0,1 @ F,0,0,1,0,0,0,1 @ F,0,0,1,0,0,0,1 @ F,0,0,1,0,0,0,1 @ F,0,0,1,0,0,0,1 @ F,0,0,1,0,0,0,1 @ F,0,0,1,0,0,0,1 @ F,0,0,1,0,0,0,1 @ F,0,0,1,0,0,0,1 @ F,0,0,1,0,0,0,1 @ F,0,0,1,0,0,0,1 @ F,0,0,1,0,0,0,1 @ F,0,0,1,0,0,0,1 @ F,0,0,1,0,0,0,1 @ F,0,0,1,0,0,0,1 @ F,0,0,1,0,0,0,1 @ F,0,0,1,0,0,0,1 @ F,0,0,1,0,0,0,1 @ F,0,0,1,0,0,0,1 @ F,0,0,1,0,0,0,1 @ F,0,0,1,0,0,0,1 @ F,0,0,1,0,0,0,1 @ F,0,0,1,0,0,0,1 @ F,0,0,1,0,0,0,1 @ F,0,0,1,0,0,0,1 @ F,0,0,1,0,0,0,1 @ F,0,0,1,0,0,0,1 @ F,0,0,1,0,0,0,1 @ F,0,0,1,0,0,0,1 @ F,0,0,1,0,0,0,1 @ F,0,0,1,0,0,0,1 @ F,0,0,1,0,0,0,1 @ F,0,0,1,0,0,0,1 @ F,0,0,1,0,0,0,1 @ F,0,0,1,0,0,0,1 @ F,0,0,1,0,0,0,1 @ F,0,0,1,0,0,0,1 @ F,0,0,1,0,0,0,1 @ F,0,0,1,0,0,0,1 @ F,0,0,1,0,0,0,1 @ F,0,0,1,0,0,0,1 @ F,0,0,1,0,0,0,1 @ F,0,0,1,0,0,0,1 @ F,0,0,1,0,0,0,1 @ F,0,0,1,0,0,0,1 @ F,0,0,1,0,0,0,1 @ F,0,0,1,0,0,0,1 @ F,0,0,1,0,0,0,1 @ F,0,0,1,0,0,0,1 @ F,0,0,1,0,0,0,1 @ F,0,0,1,0,0,0,1 @ F,0,0,1,0,0,0,1 @ F,0,0,1,0,0,0,1 @ F,0,0,1,0,0,0,1 @ F,0,0,1,0,0,0,1 @ F,0,0,1,0,0,0,1 @ F,0,0,1,0,0,0,1 @ F,0,0,1,0,0,0,1 @ F,0,0,1,0,0,0,1 @ F,0,0,1,0,0,0,1 @ F,0,0,1,0,0,0,1 @ F,0,0,1,0,0,0,1 @ F,0,0,1,0,0,0,1 @ F,0,0,1,0,0,0,1 @ F,0,0,1,0,0,0,1 @ F,0,0,1,0,0,0,1 @ F,0,0,1,0,0,0,1 @ F,0,0,1,0,0,0,1 @ F,0,0,1,0,0,0,1 @ F,0,0,1,0,0,0,1 @ F,0,0,1,0,0,0,1 @ F,0,0,1,0,0,0,1 @ F,0,0,1,0,0,0,1 @ F,0,0,1,0,0,0,1 @ F,0,0,1,0,0,0,1 @ F,0,0,1,0,0,0,1 @ F,0,0,1,0,0,0,1 @ F,0,0,1,0,0,0,1 @ F,0,0,1,0,0,0,1 @ F,0,0,1,0,0,0,1 @ F,0,0,1,0,0,0,1 @ F,0,0,1,0,0,0,1 @ F,0,0,1,0,0,0,1 @ F,0,0,1,0,0,0,1 @ F,0,0,1,0,0,0,1 @ F,0,0,1,0,0,0,1 @ F,0,0,1,0,0,0,1 @ F,0,0,1,0,0,0,1 @ F,0,0,1,0,0,0,1 @ F,0,0,1,0,0,0,1 @ F,0,0,1,0,0,0,1 @ F,0,0,1,0,0,0,1 @ F,0,0,1,0,0,0,1 @ F,0,0,1,0,0,0,1 @ F,0,0,1,0,0,0,1 @ F,0,0,1,0,0,0,1 @ F,0,0,1,0,0,0,1 @ F,0,0,1,0,0,0,1 @ F,0,0,1,0,0,0,1 @ F,0,0,1,0,0,0,1 @ F,0,0,1,0,0,0,1"
       radius="0"
       unit="px"
       method="auto"
       mode="F"
       chamfer_steps="1"
       flexible="false"
       use_knot_distance="true"
       apply_no_radius="true"
       apply_with_radius="true"
       only_selected="false"
       hide_knots="false" /></defs><g
     inkscape:label="Layer 1"
     inkscape:groupmode="layer"
     id="layer1"><path
       style="opacity:1;fill:#d40000;fill-opacity:0.970492;stroke-width:0.264582"
       d="m 111.75963,25.299438 c -11.38095,0.236636 -23.020139,-0.217774 -33.359363,3.909142 -6.644891,2.652318 -11.934205,5.052419 -16.655775,8.567584 -0.827269,1.620504 -2.208372,1.787198 -3.473668,2.257884 L 55.57873,39.860365 c -6.342399,10.081149 -10.387802,22.011098 -7.294706,39.68667 l 1.172364,0.108553 0.312938,-0.428302 8.284393,-0.03597 c 2.793755,0.885333 3.947799,3.064197 4.97169,4.914911 l 6.317735,82.564783 c -0.936181,2.73234 -2.480439,4.73501 -4.863137,5.73155 l -14.712223,-0.0421 C 22.493446,165.92693 10.008037,151.96771 5.948682,132.45536 l 9.06e-4,-13.2767 C 11.878031,101.51804 20.240713,89.625209 32.652514,85.625957 L 30.91568,73.294431 30.741995,60.789222 c 1.60815,-10.67673 4.145342,-20.656679 10.942058,-27.441986 l 0.347367,-8.163123 c 4.05595,-5.861225 9.682958,-8.634112 15.727231,-11.971401 0.363495,-0.2007 0.08026,-1.086008 0.450279,-1.286814 1.484151,-0.805433 3.253975,-1.155148 4.890161,-1.916808 5.473481,-2.5479516 13.859575,-4.340016 21.532823,-5.790565 2.07041,-0.3913896 3.108962,-1.2161167 5.281864,-1.4829994 L 111.15743,2.6052631 Z"
       id="path1"
       sodipodi:nodetypes="csccccccccccccccccccssssccc" /><path
       style="opacity:1;fill:#d40000;fill-opacity:0.970492;stroke-width:0.264583"
       d="m 98.24,25.299273 c 11.381,0.236637 23.02024,-0.217775 33.35951,3.909159 6.64492,2.652329 11.93426,5.05244 16.65585,8.567621 0.82727,1.620511 2.20838,1.787205 3.47368,2.257893 l 2.69211,-0.173683 c 6.34242,10.081192 10.38784,22.011193 7.29473,39.686841 l -1.17237,0.108553 -0.31294,-0.428304 -8.28442,-0.03597 c -2.79377,0.885337 -3.94782,3.064214 -4.97172,4.914934 l -6.31776,82.565133 c 0.93619,2.73236 2.48045,4.73503 4.86316,5.73158 l 14.71229,-0.0421 c 27.27445,-6.43356 39.75991,-20.39284 43.81929,-39.90527 l -0.0316,-13.26141 C 198.09133,101.53356 189.75931,89.625317 177.34746,85.626057 L 179.0843,73.294473 179.25799,60.78921 C 177.64983,50.112434 175.11263,40.132442 168.31588,33.347106 l -0.34737,-8.163159 c -4.05596,-5.86125 -9.683,-8.634149 -15.7273,-11.971452 -0.36349,-0.200701 -0.0803,-1.086013 -0.45028,-1.28682 -1.48415,-0.805436 -3.25399,-1.155153 -4.89018,-1.916816 -5.4735,-2.547963 -13.85963,-4.340035 -21.53291,-5.79059 -2.07042,-0.391391 -3.10898,-1.216122 -5.28189,-1.483006 L 98.8422,2.605 Z"
       id="path1-5"
       sodipodi:nodetypes="csccccccccccccccccccssssccc" /><path
       style="opacity:1;fill:#d40000;fill-opacity:0.970492;stroke-width:0.264583"
       d="m 122.40395,102.9296 -11.91908,0.0869 -0.0217,-0.71645 0.93355,-0.0868 0.0651,-0.43421 -0.89013,-0.0868 -0.0868,-1.06382 12.61381,0.13026 -0.13026,-7.381576 -0.73816,-0.586185 -11.65855,-0.217106 -0.15197,-0.716447 1.08552,-0.130262 0.0434,-0.629605 -0.91184,-0.02172 -0.15197,-0.846711 11.81052,0.108553 0.80329,-0.738158 0.0651,-1.932237 -0.58618,-2.496711 -0.75987,-1.541447 -0.78158,-1.584867 -0.65131,-1.085527 -0.90099,-0.890133 -0.66217,-0.629605 c 0,0 -0.55348,-0.513934 -0.81414,-0.749012 -0.26066,-0.235078 -0.74902,-0.662172 -0.74902,-0.662172 l -0.67303,-0.673026 -1.49802,-0.607893 -1.32434,-0.803291 -2.17106,-0.716447 -14.046706,-0.06513 -1.367764,0.673028 -1.367764,0.803288 -1.389472,0.694738 -0.738158,0.607893 -0.673026,0.846712 -0.738159,0.651314 -0.738158,0.673029 -0.651314,0.694735 -0.78158,0.651317 -0.716449,1.498025 -0.586184,1.302632 -0.673026,1.476316 -0.716447,2.930922 -0.217106,56.621046 0.933553,2.73553 0.629605,2.10592 0.825,0.80329 0.629605,2.14934 0.716449,0.60789 0.759868,0.825 0.673026,0.65132 1.302631,0.6296 0.781579,0.67303 0.607896,0.75987 1.454605,0.58619 1.541447,0.84671 h 15.544739 l 1.8671,-0.60789 1.56316,-0.78158 0.65132,-0.69474 0.67302,-0.93355 0.62961,-0.54276 0.69473,-0.75987 0.75987,-0.62961 0.65132,-0.60789 0.71645,-1.60658 0.67302,-1.41118 0.75987,-1.28094 0.84671,-2.82236 -0.0651,-1.43289 -0.89013,-0.73816 -11.65855,-0.10855 v -1.04211 l 0.91184,-0.0217 -0.0434,-0.45593 -0.86842,0.0651 -0.0651,-0.71645 11.87566,-0.28224 0.73816,-0.69473 0.0651,-7.4033 -12.5921,0.0217 -0.10856,-0.86841 1.17237,-0.0868 -0.0868,-0.49934 -1.17237,-0.0434 0.1954,-0.75987 12.44013,-0.0651 0.0217,-6.6 -0.71644,-0.80329 c 0,0 -11.55,-0.0217 -11.65855,-0.0217 -0.10856,0 -0.15198,-0.93355 -0.15198,-0.93355 l 1.04211,-0.17369 0.0868,-0.39079 -0.93355,-0.0868 -0.15198,-0.80329 12.44013,-0.15197 0.0217,-7.81579 -12.48356,-0.0651 -0.13026,-1.04211 0.93355,-0.0868 0.0651,-0.36908 -0.89014,-0.0217 -0.0868,-1.12895 12.67895,-0.0217 -0.0651,-6.44803 z"
       id="path2"
       sodipodi:nodetypes="ccccccccccccccccccccccccczcccccccccccccccccccccccccccccccccccccccccccccccccccccccccccccccccscccccccccccccccc"
       inkscape:path-effect="#path-effect4"
       inkscape:original-d="m 122.40395,102.9296 -11.91908,0.0869 -0.0217,-0.71645 0.93355,-0.0868 0.0651,-0.43421 -0.89013,-0.0868 -0.0868,-1.06382 12.61381,0.13026 -0.13026,-7.381576 -0.73816,-0.586185 -11.65855,-0.217106 -0.15197,-0.716447 1.08552,-0.130262 0.0434,-0.629605 -0.91184,-0.02172 -0.15197,-0.846711 11.81052,0.108553 0.80329,-0.738158 0.0651,-1.932237 -0.58618,-2.496711 -0.75987,-1.541447 -0.78158,-1.584867 -0.65131,-1.085527 -0.90099,-0.890133 -0.66217,-0.629605 c 0,0 -0.55348,-0.513934 -0.81414,-0.749012 -0.26066,-0.235078 -0.74902,-0.662172 -0.74902,-0.662172 l -0.67303,-0.673026 -1.49802,-0.607893 -1.32434,-0.803291 -2.17106,-0.716447 -14.046706,-0.06513 -1.367764,0.673028 -1.367764,0.803288 -1.389472,0.694738 -0.738158,0.607893 -0.673026,0.846712 -0.738159,0.651314 -0.738158,0.673029 -0.651314,0.694735 -0.78158,0.651317 -0.716449,1.498025 -0.586184,1.302632 -0.673026,1.476316 -0.716447,2.930922 -0.217106,56.621046 0.933553,2.73553 0.629605,2.10592 0.825,0.80329 0.629605,2.14934 0.716449,0.60789 0.759868,0.825 0.673026,0.65132 1.302631,0.6296 0.781579,0.67303 0.607896,0.75987 1.454605,0.58619 1.541447,0.84671 h 15.544739 l 1.8671,-0.60789 1.56316,-0.78158 0.65132,-0.69474 0.67302,-0.93355 0.62961,-0.54276 0.69473,-0.75987 0.75987,-0.62961 0.65132,-0.60789 0.71645,-1.60658 0.67302,-1.41118 0.75987,-1.28094 0.84671,-2.82236 -0.0651,-1.43289 -0.89013,-0.73816 -11.65855,-0.10855 v -1.04211 l 0.91184,-0.0217 -0.0434,-0.45593 -0.86842,0.0651 -0.0651,-0.71645 11.87566,-0.28224 0.73816,-0.69473 0.0651,-7.4033 -12.5921,0.0217 -0.10856,-0.86841 1.17237,-0.0868 -0.0868,-0.49934 -1.17237,-0.0434 0.1954,-0.75987 12.44013,-0.0651 0.0217,-6.6 -0.71644,-0.80329 c 0,0 -11.55,-0.0217 -11.65855,-0.0217 -0.10856,0 -0.15198,-0.93355 -0.15198,-0.93355 l 1.04211,-0.17369 0.0868,-0.39079 -0.93355,-0.0868 -0.15198,-0.80329 12.44013,-0.15197 0.0217,-7.81579 -12.48356,-0.0651 -0.13026,-1.04211 0.93355,-0.0868 0.0651,-0.36908 -0.89014,-0.0217 -0.0868,-1.12895 12.67895,-0.0217 -0.0651,-6.44803 z" /><path
       style="opacity:1;fill:#d40000;fill-opacity:0.970492;stroke-width:0.264583"
       d="m 106.72474,204.11568 -25.192072,-0.0461 -0.04606,-11.25277 c 0.0978,-0.47248 0.380845,-0.66709 0.767583,-0.70617 l 17.408784,-0.0614 -0.09211,-15.19814 c -3.502828,-0.20318 -6.814947,-0.87642 -9.839833,-2.209 -2.861511,-1.26062 -5.300339,-3.26541 -7.731688,-5.71223 -4.885107,-4.91618 -9.612845,-11.73936 -11.136191,-22.77464 v -21.45 c -0.03843,-0.95408 0.287137,-1.24635 0.694738,-1.38947 l 10.160524,-0.0868 c 0.832274,0.34625 0.638431,0.85036 0.781579,1.30263 l 0.173686,21.16776 c 1.124968,4.60064 2.524597,8.5659 5.184323,11.7803 2.421382,2.92635 5.671213,5.10442 10.099888,6.21773 l 8.684219,0.17368 z"
       id="path4"
       sodipodi:nodetypes="ccccccssccccccsccc" /><path
       style="opacity:1;fill:#d40000;fill-opacity:0.970492;stroke-width:0.264583"
       d="m 103.275,204.11572 25.19207,-0.0461 0.0461,-11.25277 c -0.0978,-0.47248 -0.38084,-0.66709 -0.76758,-0.70617 l -17.40878,-0.0614 0.0921,-15.19814 c 3.50282,-0.20318 6.81494,-0.87642 9.83983,-2.209 2.86151,-1.26062 5.30034,-3.26541 7.73169,-5.71223 4.8851,-4.91618 9.61284,-11.73936 11.13619,-22.77464 v -21.45 c 0.0384,-0.95408 -0.28714,-1.24635 -0.69474,-1.38947 l -10.16053,-0.0868 c -0.83227,0.34625 -0.63843,0.85036 -0.78157,1.30263 l -0.17369,21.16776 c -1.12497,4.60064 -2.5246,8.5659 -5.18432,11.7803 -2.42138,2.92635 -5.67122,5.10442 -10.09989,6.21773 l -8.68422,0.17368 z"
       id="path4-1"
       sodipodi:nodetypes="ccccccssccccccsccc" /></g></svg>
