<svg xmlns="http://www.w3.org/2000/svg" xmlns:xlink="http://www.w3.org/1999/xlink" width="621" zoomAndPan="magnify" viewBox="0 0 465.75 89.999999" height="120" preserveAspectRatio="xMidYMid meet" version="1.0"><defs><g/><clipPath id="88b2cf49a1"><path d="M 0 0.0234375 L 465.5 0.0234375 L 465.5 89.976562 L 0 89.976562 Z M 0 0.0234375 " clip-rule="nonzero"/></clipPath><clipPath id="bee4051514"><path d="M 1 0.0234375 L 49 0.0234375 L 49 39 L 1 39 Z M 1 0.0234375 " clip-rule="nonzero"/></clipPath><clipPath id="4661173d9f"><path d="M 120 51 L 142.386719 51 L 142.386719 71 L 120 71 Z M 120 51 " clip-rule="nonzero"/></clipPath><clipPath id="9c4afbb8fb"><path d="M 3 0.0234375 L 48 0.0234375 L 48 28 L 3 28 Z M 3 0.0234375 " clip-rule="nonzero"/></clipPath><clipPath id="d8e29a1203"><path d="M 93 0.0234375 L 140 0.0234375 L 140 30 L 93 30 Z M 93 0.0234375 " clip-rule="nonzero"/></clipPath><clipPath id="ee604cdcfe"><path d="M 99 0.0234375 L 141 0.0234375 L 141 34 L 99 34 Z M 99 0.0234375 " clip-rule="nonzero"/></clipPath><clipPath id="3d033d5646"><path d="M 152 27 L 465.5 27 L 465.5 89.976562 L 152 89.976562 Z M 152 27 " clip-rule="nonzero"/></clipPath><clipPath id="34510b70f6"><path d="M 130 13 L 162 13 L 162 62.976562 L 130 62.976562 Z M 130 13 " clip-rule="nonzero"/></clipPath><clipPath id="737f59ec00"><rect x="0" width="314" y="0" height="63"/></clipPath><clipPath id="f186a8cae4"><rect x="0" width="466" y="0" height="90"/></clipPath></defs><g clip-path="url(#88b2cf49a1)"><g transform="matrix(1, 0, 0, 1, 0, -0.000000000000000847)"><g clip-path="url(#f186a8cae4)"><g clip-path="url(#bee4051514)"><path fill="#d40000" d="M 48.550781 28.964844 C 47.472656 30.347656 46.339844 32.398438 45.257812 37.460938 C 45.078125 38.269531 42.882812 38.140625 40.976562 38.144531 C 26.566406 28.910156 12.378906 19.296875 5.894531 9.765625 C 3.457031 5.613281 2.367188 3.367188 1.46875 0.371094 C 12.910156 17.773438 30.523438 28.421875 48.550781 28.964844 Z M 48.550781 28.964844 " fill-opacity="0.97" fill-rule="nonzero"/></g><path fill="#d40000" d="M 46.761719 43.730469 C 46.835938 42.601562 46.136719 40.5 43.304688 40.8125 C 44.339844 41.550781 45.542969 42.621094 46.761719 43.730469 Z M 46.761719 43.730469 " fill-opacity="0.97" fill-rule="nonzero"/><path fill="#d40000" d="M 42.980469 23.933594 C 41.691406 22.84375 40.507812 21.476562 39.5625 20.160156 C 25.765625 17.605469 17.382812 11.226562 9.945312 4.09375 L 6.121094 2.652344 C 16.519531 16.09375 33 22.320312 42.980469 23.933594 Z M 42.980469 23.933594 " fill-opacity="0.97" fill-rule="nonzero"/><path fill="#d40000" d="M 99.492188 23.914062 C 100.773438 22.796875 102.007812 21.34375 103.058594 20.285156 C 116.898438 17.753906 125.914062 11.808594 132.480469 4.242188 C 133.578125 3.898438 135.074219 3.242188 136.472656 2.65625 C 135.722656 4.175781 131.464844 8.421875 127.886719 11.492188 C 125.820312 13.261719 123.585938 14.796875 121.378906 16.320312 C 118.738281 18.140625 115.875 19.441406 113.160156 20.628906 C 108.25 22.785156 103.398438 23.660156 99.492188 23.914062 Z M 99.492188 23.914062 " fill-opacity="0.97" fill-rule="nonzero"/><path fill="#d40000" d="M 32.003906 74.378906 C 30.28125 72.597656 28.941406 71.203125 27.566406 69.773438 C 23.8125 66.589844 19.234375 74.191406 17.65625 78.132812 C 17.609375 78.253906 17.714844 78.382812 18.003906 78.242188 C 19.925781 77.308594 22.964844 76.726562 25.65625 76.359375 C 28.15625 76.058594 30.410156 75.492188 32.003906 74.378906 Z M 32.003906 74.378906 " fill-opacity="0.97" fill-rule="nonzero"/><path fill="#d40000" d="M 110.171875 74.933594 C 111.894531 73.152344 113.234375 71.753906 114.605469 70.328125 C 118.359375 67.144531 122.835938 74.59375 124.414062 78.535156 C 124.449219 78.8125 124.117188 78.8125 123.796875 78.636719 C 121.871094 77.582031 118.78125 77.332031 116.542969 77.144531 C 114.042969 76.847656 111.765625 76.046875 110.171875 74.933594 Z M 110.171875 74.933594 " fill-opacity="0.97" fill-rule="nonzero"/><path fill="#d40000" d="M 21.398438 65.609375 C 20.042969 66.46875 18.574219 68.472656 17.878906 69.328125 C 14.257812 66.84375 3.28125 57.757812 0 51.007812 C 7.386719 57.175781 12.726562 61.207031 21.398438 65.609375 Z M 21.398438 65.609375 " fill-opacity="0.97" fill-rule="nonzero"/><path fill="#d40000" d="M 17.644531 70.359375 C 17.183594 72.019531 16.078125 73.679688 15.0625 75.339844 C 8.589844 69.421875 2.679688 58.628906 0.613281 54.648438 C 6.730469 60.949219 12.382812 65.734375 17.644531 70.359375 Z M 17.644531 70.359375 " fill-opacity="0.97" fill-rule="nonzero"/><g clip-path="url(#4661173d9f)"><path fill="#d40000" d="M 120.871094 66.152344 C 122.226562 67.007812 123.738281 69.15625 124.433594 70.011719 C 128.054688 67.527344 139.105469 58.296875 142.386719 51.546875 C 134.996094 57.71875 129.542969 61.746094 120.871094 66.152344 Z M 120.871094 66.152344 " fill-opacity="0.97" fill-rule="nonzero"/></g><path fill="#d40000" d="M 124.648438 70.917969 C 125.109375 72.578125 126.480469 75.433594 127.433594 76.007812 C 133.90625 70.089844 139.707031 59.171875 141.769531 55.191406 C 135.652344 61.492188 129.90625 66.292969 124.648438 70.917969 Z M 124.648438 70.917969 " fill-opacity="0.97" fill-rule="nonzero"/><path fill="#d40000" d="M 53.332031 30.859375 C 64.605469 35.132812 63.25 47.417969 51.558594 41.097656 C 60.878906 41.292969 57.421875 33.296875 53.332031 30.859375 Z M 53.332031 30.859375 " fill-opacity="0.97" fill-rule="nonzero"/><path fill="#d40000" d="M 67.523438 52.09375 L 66.472656 51.191406 C 64.632812 58.777344 59.835938 66.941406 51.757812 73.097656 C 53.089844 71.992188 65.949219 65.554688 67.523438 52.09375 Z M 67.523438 52.09375 " fill-opacity="0.97" fill-rule="nonzero"/><path fill="#d40000" d="M 74.984375 51.800781 L 76.179688 51.015625 C 77.769531 58.90625 83.019531 67.035156 91.136719 73.140625 C 89.765625 72.453125 77.167969 65.851562 74.984375 51.800781 Z M 74.984375 51.800781 " fill-opacity="0.97" fill-rule="nonzero"/><path fill="#d40000" d="M 71.179688 76.957031 C 71.914062 73.941406 73.039062 70.492188 75.90625 66.679688 L 75.894531 61.089844 L 73.851562 63.152344 C 73.726562 63.335938 73.605469 63.234375 73.484375 63.140625 L 74.050781 51.769531 L 76.390625 49.914062 L 76.726562 49.914062 C 77.199219 53.257812 78.402344 56.238281 79.804688 59.144531 C 81.195312 62.03125 83.21875 64.582031 86.023438 67.0625 C 89.246094 69.910156 92.953125 72.859375 97.464844 75.402344 C 87.535156 67.273438 78.957031 58.828125 78.746094 48.414062 L 76.015625 40.363281 C 75.585938 37.238281 76.074219 35.453125 77 34.027344 C 78.0625 32.390625 79.328125 31.03125 81.054688 29.890625 C 82.242188 29.109375 83.492188 28.363281 84.832031 27.800781 C 85.8125 27.390625 86.753906 26.828125 87.761719 26.363281 C 89.207031 25.695312 90.523438 24.75 91.90625 23.957031 C 92.59375 23.566406 93.246094 23.125 93.929688 22.730469 C 95.546875 21.800781 96.992188 20.929688 98.226562 19.941406 C 101.296875 17.882812 103.507812 15.722656 105.53125 13.738281 C 107.957031 11.355469 109.816406 8.980469 111.296875 6.652344 C 104.617188 13.347656 98.167969 18.988281 86.609375 24.292969 C 85.433594 24.964844 84.089844 25.402344 83 26.039062 C 80.964844 27.234375 79.023438 28.101562 77.402344 29.359375 C 77.277344 29.453125 77.179688 29.574219 77.074219 29.679688 C 75.304688 31.472656 74.695312 33.121094 74.191406 34.640625 C 73.589844 36.453125 73.574219 35.523438 72.476562 42.160156 C 72.457031 42.449219 72.289062 42.402344 72.191406 42.28125 C 72.050781 41.050781 72.394531 36.746094 73.15625 34.742188 C 73.71875 33.261719 74.40625 31.402344 75.011719 30.304688 C 75.28125 29.8125 75.625 29.316406 76.125 28.949219 C 78.363281 27.320312 78.652344 27.203125 79.101562 27.039062 C 79.265625 26.980469 79.664062 26.757812 79.832031 26.6875 C 81.417969 26.019531 83.21875 25.375 85.75 24.050781 C 87.964844 23.007812 90.046875 21.699219 92.199219 20.460938 C 101.910156 14.871094 106.394531 10.238281 110.648438 5.664062 C 101.792969 13.050781 91.980469 18.601562 81.332031 23.8125 C 79.328125 24.234375 78.015625 25.011719 76.457031 25.941406 C 74.835938 26.910156 72.976562 28.207031 71.421875 29.984375 L 71.035156 29.984375 C 69.0625 27.023438 64.011719 25.042969 59.464844 22.878906 C 49.429688 18.109375 44.738281 15.015625 41.628906 12.84375 C 37.414062 9.898438 36.550781 9.519531 31.683594 5.582031 C 36.535156 11.0625 46.023438 18.679688 57.136719 24.144531 C 59.433594 25.390625 61.789062 26.664062 64.136719 27.59375 C 67.839844 29.058594 69.503906 32.261719 70.195312 42.082031 C 70.105469 42.683594 69.941406 42.3125 69.875 42.015625 C 69.246094 38.800781 68.585938 35.558594 66.976562 31.628906 C 65.539062 29.75 62.289062 27.535156 56.851562 25.019531 C 47.574219 21.339844 39.121094 14.847656 31.371094 6.921875 C 36.925781 12.917969 39.339844 18.339844 55.160156 26.222656 C 60.167969 28.953125 63.3125 31.109375 64.882812 32.828125 C 67.453125 35.636719 66.515625 37.953125 66.3125 39.953125 C 66.199219 41.070312 64.78125 45.570312 63.554688 48.5625 C 63.605469 57.023438 57.421875 65.863281 45.460938 75.050781 C 56.648438 69.199219 64.039062 61.230469 65.589844 50.015625 C 65.902344 49.382812 65.902344 49.578125 66.023438 49.589844 L 68.546875 51.738281 L 69.027344 63.40625 C 68.929688 63.441406 68.832031 63.429688 68.71875 63.378906 L 66.535156 61.242188 L 66.546875 66.355469 C 68.269531 68.667969 70.257812 72.558594 71.179688 76.957031 Z M 71.179688 76.957031 " fill-opacity="0.97" fill-rule="nonzero"/><g clip-path="url(#9c4afbb8fb)"><path fill="#d40000" d="M 43.894531 24.699219 C 44.902344 25.726562 46 26.578125 47.101562 27.425781 C 40.816406 27.019531 35.796875 25.667969 31.453125 24.183594 C 27.960938 22.992188 24.984375 21.28125 22.136719 19.644531 C 19.964844 18.394531 18.132812 16.8125 16.222656 15.445312 C 13.957031 13.820312 12.152344 11.890625 10.375 10.046875 C 7.136719 6.683594 5.074219 3.332031 3.378906 0.441406 C 4.621094 2.34375 6.277344 3.894531 7.765625 5.652344 C 8.957031 7.0625 10.210938 8.210938 11.359375 9.351562 C 12.152344 10.144531 13.015625 10.816406 13.804688 11.558594 C 14.898438 12.585938 16.011719 13.363281 17.019531 14.210938 C 19.125 15.980469 20.390625 16.601562 21.976562 17.773438 C 22.957031 18.496094 24.171875 18.960938 25.363281 19.582031 C 27.949219 20.925781 30.574219 21.84375 32.933594 22.570312 C 34.699219 23.109375 36.316406 23.585938 37.761719 23.867188 C 40.40625 24.382812 42.519531 24.816406 43.894531 24.699219 Z M 43.894531 24.699219 " fill-opacity="0.97" fill-rule="nonzero"/></g><path fill="#d40000" d="M 84.121094 29.425781 C 84.839844 30.65625 86.140625 31.410156 87.824219 31.382812 C 88.828125 30.925781 89.8125 30.449219 90.734375 29.882812 C 94.316406 27.675781 98.277344 24.125 101.859375 20.207031 C 104.015625 17.851562 106.304688 15.3125 108.285156 13 C 108.253906 12.859375 108.167969 12.871094 108.070312 12.914062 C 106.3125 14.585938 104.570312 16.023438 102.890625 17.363281 C 101.101562 18.796875 99.3125 20.023438 97.585938 21.242188 C 93.035156 24.453125 88.539062 26.917969 84.121094 29.425781 Z M 84.121094 29.425781 " fill-opacity="0.97" fill-rule="nonzero"/><path fill="#d40000" d="M 49.023438 62.914062 C 47.761719 64.988281 45.816406 66.503906 43.300781 67.933594 C 42.789062 68.058594 42.296875 68.082031 41.835938 67.902344 C 36.839844 66.34375 31.066406 64.679688 24.382812 60.972656 C 32.273438 61.929688 39.890625 63.003906 48.789062 62.710938 C 49.019531 62.746094 49.203125 62.648438 49.023438 62.914062 Z M 49.023438 62.914062 " fill-opacity="0.97" fill-rule="nonzero"/><g clip-path="url(#d8e29a1203)"><path fill="#d40000" d="M 98.433594 24.652344 C 97.976562 25.535156 97.132812 26.300781 96.066406 27.296875 C 95.25 28.0625 94.355469 28.722656 93.554688 29.476562 C 96.578125 28.941406 99.332031 28.125 101.953125 27.394531 C 105.386719 26.441406 108.464844 25.328125 111.273438 24.152344 C 116.039062 22.15625 119.859375 20.007812 123.050781 17.847656 C 126.570312 15.460938 129.277344 13.140625 131.488281 10.964844 C 135.636719 6.871094 137.894531 3.171875 139.644531 -0.015625 C 138.445312 1.5625 137.199219 2.964844 136.042969 4.332031 C 135.082031 5.460938 134.09375 6.480469 133.152344 7.472656 C 132.351562 8.316406 131.535156 9.089844 130.738281 9.832031 C 120.105469 19.714844 108.078125 24.453125 98.433594 24.652344 Z M 98.433594 24.652344 " fill-opacity="0.97" fill-rule="nonzero"/></g><path fill="#d40000" d="M 110.601562 40.601562 C 110.652344 42.046875 110.417969 43.292969 109.828125 44.289062 C 115.203125 44.011719 120.738281 41.445312 124.886719 38.644531 C 128.898438 35.933594 131.375 33.335938 133.449219 31.140625 C 136.074219 28.363281 136.890625 26.980469 138.105469 25.328125 C 134.269531 28.929688 130.222656 32.09375 125.1875 34.933594 C 120.78125 37.421875 115.964844 39.371094 110.601562 40.601562 Z M 110.601562 40.601562 " fill-opacity="0.97" fill-rule="nonzero"/><g clip-path="url(#ee604cdcfe)"><path fill="#d40000" d="M 140.5 1.195312 C 141.050781 0.308594 140.949219 1.078125 140.5 2.730469 C 138.679688 6.601562 136.75 10.496094 135.441406 12.371094 C 133.675781 14.902344 132.128906 17.203125 130.371094 19.109375 C 127.59375 22.113281 124.964844 24.800781 121.707031 27.019531 C 118.390625 29.277344 114.707031 31.464844 109.730469 33.335938 C 109.285156 33.398438 108.835938 33.367188 108.339844 33.269531 C 108.09375 33.117188 107.949219 32.917969 107.867188 32.703125 C 107.457031 31.589844 106.375 30.851562 105.363281 30.332031 C 104.371094 29.820312 103.511719 29.394531 102.042969 29.046875 C 101.394531 28.894531 100.636719 28.878906 99.742188 28.679688 C 108.875 27.378906 116.550781 23.671875 124.480469 17.886719 C 126.21875 16.617188 128 15.199219 129.777344 13.484375 C 131.128906 12.183594 132.605469 10.84375 134.03125 9.242188 C 136.09375 6.917969 138.335938 4.355469 140.5 1.195312 Z M 140.5 1.195312 " fill-opacity="0.97" fill-rule="nonzero"/></g><path fill="#d40000" d="M 109.347656 35.121094 C 109.34375 35.230469 109.398438 35.226562 109.464844 35.285156 C 109.921875 35.695312 110.179688 35.878906 110.359375 37.679688 C 110.363281 37.710938 110.359375 37.730469 110.398438 37.71875 C 114.09375 36.269531 117.691406 34.183594 121.003906 31.984375 C 124 29.996094 126.796875 27.726562 129.261719 25.292969 C 131.171875 23.410156 132.976562 21.464844 134.480469 19.429688 C 137.40625 15.464844 139.378906 12.226562 140.515625 9.332031 C 141.4375 7.222656 140.917969 7.886719 140.472656 8.179688 C 139.449219 10.003906 138.164062 11.734375 136.851562 13.511719 C 135.347656 15.546875 133.605469 17.492188 131.804688 19.464844 C 129.433594 22.0625 126.667969 24.351562 123.851562 26.65625 C 122.199219 28.011719 120.40625 29.222656 118.5625 30.386719 C 114.679688 32.835938 112.5 33.714844 109.476562 35.027344 C 109.433594 35.054688 109.378906 35.050781 109.347656 35.121094 Z M 109.347656 35.121094 " fill-opacity="0.97" fill-rule="nonzero"/><path fill="#d40000" d="M 83.179688 29.960938 C 84.34375 31.105469 85.472656 33.113281 88.386719 32.445312 C 89.292969 32.238281 90.167969 31.554688 91.074219 31.082031 C 92.089844 30.554688 93.132812 30.234375 94.039062 30.085938 C 95.128906 29.90625 96.199219 29.753906 97.191406 29.640625 C 99.054688 29.710938 100.589844 30.011719 101.882812 30.449219 C 103.722656 31.074219 105.066406 31.972656 106.164062 32.863281 C 110.679688 36.519531 109.652344 40.757812 109.757812 41.753906 C 109.941406 43.480469 108.535156 45.589844 106.21875 48.242188 C 105.574219 48.980469 104.742188 49.734375 103.734375 50.542969 C 102.492188 51.542969 100.960938 52.609375 99.101562 53.75 C 97.851562 54.332031 97.09375 55.058594 96.386719 55.816406 C 95.304688 56.976562 94.347656 58.105469 93.542969 59.230469 C 92.15625 61.164062 91.472656 62.824219 91.457031 65.804688 C 90.214844 64.703125 88.640625 63.410156 88.058594 61.9375 C 89.976562 62.402344 89.792969 61.335938 89.933594 60.335938 C 90.832031 59.066406 92.449219 56.765625 94.570312 54.78125 C 96.210938 53.242188 98.210938 51.785156 100.574219 50.882812 C 102.003906 50.078125 104.140625 48.5 105.820312 46.503906 C 107.871094 44.066406 109.03125 41.089844 107.820312 37.9375 C 107.273438 36.511719 106.230469 34.621094 103.566406 33.144531 C 102.160156 32.363281 100.257812 31.871094 97.90625 31.792969 C 96.28125 31.820312 94.519531 31.609375 91.097656 33.292969 C 90.824219 33.488281 90.757812 33.523438 89.964844 34.105469 C 89.453125 35.003906 88.394531 35.542969 87.269531 36.035156 C 86.425781 35.832031 85.5625 35.941406 84.785156 34.828125 C 83.554688 33.488281 82.691406 32.871094 81.3125 31.035156 C 81.925781 30.628906 82.519531 30.121094 83.179688 29.960938 Z M 83.179688 29.960938 " fill-opacity="0.97" fill-rule="nonzero"/><path fill="#d40000" d="M 81.257812 33.179688 C 82.972656 36.953125 85.148438 40.464844 87.929688 37.210938 C 88.519531 36.660156 89.039062 36.097656 89.683594 35.589844 C 90.304688 35.097656 91.042969 34.664062 91.769531 34.199219 C 93.152344 33.308594 94.960938 32.769531 97.265625 32.46875 C 101.28125 32.863281 104.527344 34.164062 106.195312 37.542969 C 108.15625 41.496094 106.289062 45.335938 101.53125 48.945312 C 101.335938 49.148438 101.042969 49.375 100.578125 49.757812 C 100.320312 49.96875 99.976562 50.089844 99.625 50.171875 C 99.046875 50.308594 98.496094 50.679688 97.921875 50.933594 C 96.523438 51.398438 95.25 52.113281 94.203125 53.089844 C 93.683594 53.609375 93.078125 54.101562 93.023438 54.789062 L 90.945312 57.785156 C 91.175781 56.757812 91 56.429688 91.523438 54.863281 C 91.789062 54.074219 92.089844 53.214844 92.726562 52.414062 C 93.515625 51.425781 94.429688 50.335938 96.199219 49.414062 C 99.066406 48.289062 101.03125 46.636719 102.695312 44.777344 C 103.4375 43.949219 103.96875 43.007812 104.269531 41.960938 C 104.832031 40.023438 104.789062 38.871094 104.238281 37.75 C 103.554688 36.824219 102.832031 36.078125 101.992188 35.707031 C 100.660156 35.121094 99.261719 34.75 98.09375 34.710938 C 97.214844 34.679688 96.496094 34.640625 95.621094 34.824219 C 93.871094 35.191406 92.597656 35.640625 91.769531 36.273438 C 90.753906 37.140625 89.726562 38.023438 88.839844 38.957031 C 87.976562 39.867188 86.683594 40.265625 85.320312 40.519531 C 84.027344 40.472656 83.453125 39.890625 82.992188 39.386719 C 81.941406 38.234375 81.765625 37.222656 81.609375 36.511719 C 81.230469 35.203125 81.386719 34.464844 81.257812 33.179688 Z M 81.257812 33.179688 " fill-opacity="0.97" fill-rule="nonzero"/><path fill="#d40000" d="M 108.808594 46.101562 C 113.234375 46.472656 118.304688 45.941406 123.460938 44.632812 C 128.5 43.347656 133.949219 41.742188 139.460938 39.621094 C 133.058594 44.464844 117.578125 49.03125 107.09375 48.644531 C 107.839844 47.753906 108.804688 46.808594 108.808594 46.101562 Z M 108.808594 46.101562 " fill-opacity="0.97" fill-rule="nonzero"/><path fill="#d40000" d="M 105.363281 50.25 C 117.515625 49.828125 129.105469 46.089844 140.53125 41.085938 C 141.433594 40.839844 140.738281 41.605469 140.566406 41.941406 C 133.972656 46.019531 126.78125 48.621094 119.453125 50.914062 C 112.160156 53.195312 104.644531 54.75 97.207031 56.105469 C 99.789062 53.910156 102.597656 52.113281 105.363281 50.25 Z M 105.363281 50.25 " fill-opacity="0.97" fill-rule="nonzero"/><path fill="#d40000" d="M 95.191406 58.105469 C 110.886719 55.566406 125.671875 49.960938 140.617188 44.902344 C 133.558594 48.652344 126.445312 51.59375 119.253906 53.9375 C 106.023438 58.246094 101.066406 59.242188 93.175781 61.019531 C 93.207031 59.949219 94.1875 58.984375 95.191406 58.105469 Z M 95.191406 58.105469 " fill-opacity="0.97" fill-rule="nonzero"/><path fill="#d40000" d="M 98.363281 60.640625 C 99.144531 60.84375 109.929688 60.382812 115.722656 60.289062 C 109.148438 61.65625 102.21875 61.703125 95.816406 61.796875 Z M 98.363281 60.640625 " fill-opacity="0.97" fill-rule="nonzero"/><path fill="#d40000" d="M 93.476562 62.523438 C 101.867188 62.875 110.125 62.171875 118.101562 61.148438 C 113.566406 63.511719 108.660156 65.929688 102.289062 67.410156 C 101.398438 67.570312 100.84375 67.691406 100.203125 68.058594 C 100.035156 68.152344 99.492188 68.066406 99.355469 68.105469 C 97.125 66.472656 94.835938 64.894531 93.476562 62.523438 Z M 93.476562 62.523438 " fill-opacity="0.97" fill-rule="nonzero"/><path fill="#d40000" d="M 101.117188 68.707031 C 107.632812 66.371094 114.007812 64.03125 120.246094 61.691406 C 115.683594 64.511719 111.054688 67.222656 105.222656 69.644531 C 103.691406 69.585938 102.054688 69.695312 101.117188 68.707031 Z M 101.117188 68.707031 " fill-opacity="0.97" fill-rule="nonzero"/><path fill="#d40000" d="M 110.207031 68.855469 L 106.628906 72.296875 C 106.054688 72.902344 105.253906 73.277344 103.714844 72.917969 C 99.089844 71.726562 95.113281 69.390625 92.179688 66.214844 C 92.199219 65.222656 92.378906 64.34375 92.515625 63.433594 C 94.59375 65.644531 97.539062 68.886719 101.511719 69.949219 C 103.890625 70.582031 106.660156 70.394531 110.207031 68.855469 Z M 110.207031 68.855469 " fill-opacity="0.97" fill-rule="nonzero"/><path fill="#d40000" d="M 80.277344 33.574219 C 80.375 38.390625 81.589844 41.125 84.097656 41.21875 C 86.003906 41.289062 88.605469 40.246094 91.917969 37.410156 C 91.054688 41.402344 89.933594 44.984375 88.175781 46.671875 C 86.472656 48.273438 86.671875 50.644531 87.003906 52.511719 C 87.367188 54.539062 88.1875 56.523438 89.578125 58.105469 C 89.554688 59.304688 89.652344 60.585938 88.488281 61.015625 C 87.273438 60.800781 86.585938 59.082031 85.835938 57.535156 C 85.121094 55.929688 84.3125 54.382812 83.839844 52.890625 C 83.664062 52.328125 83.769531 51.800781 83.601562 51.246094 C 83.964844 48.519531 85.304688 46.4375 87.085938 44.644531 C 87.734375 44.113281 88.328125 43.691406 88.234375 42.480469 C 85.269531 43.070312 83.203125 42.453125 81.828125 41.3125 C 79.503906 39.382812 79.792969 35.886719 80.277344 33.574219 Z M 80.277344 33.574219 " fill-opacity="0.97" fill-rule="nonzero"/><path fill="#d40000" d="M 80.121094 31.789062 C 79.039062 35.035156 77.984375 38.816406 79.804688 40.972656 C 81.367188 42.824219 83.429688 43.800781 87.269531 43.53125 C 85.15625 45.179688 82.199219 46.800781 82.65625 51.230469 C 84 55.46875 85.171875 59.730469 87.929688 63.542969 C 89.46875 65.613281 91.464844 67.28125 93.605469 68.871094 C 96.390625 70.9375 98.621094 72.136719 102.519531 73.894531 C 105.113281 74.070312 106.59375 73.617188 107.808594 72.554688 C 109.21875 71.324219 110.457031 69.890625 111.605469 68.398438 C 115.597656 65.421875 119.5 64.160156 123.617188 70.65625 C 124.824219 73.199219 126 75.753906 127.445312 78.25 C 127.589844 78.710938 127.328125 78.710938 126.757812 78.363281 C 124.636719 75.746094 123.238281 73.3125 121.558594 70.25 C 119.222656 67.550781 117.566406 66.625 113.472656 69.40625 L 109.355469 73.632812 L 108.65625 74.84375 C 105.59375 77.410156 99.117188 75.558594 95.28125 71.832031 C 91.167969 69.140625 87.929688 65.390625 85.078125 61.628906 C 81.855469 57.230469 80.582031 52.832031 79.789062 48.433594 C 78.058594 44.992188 77.132812 42.164062 77.007812 39.320312 C 76.84375 35.65625 77.5625 33.101562 80.121094 31.789062 Z M 80.121094 31.789062 " fill-opacity="0.97" fill-rule="nonzero"/><path fill="#d40000" d="M 49.441406 42.679688 C 51.402344 44.378906 54.070312 44.871094 55.832031 46.128906 C 57.558594 47.359375 58.78125 48.851562 58.914062 50.882812 C 56.824219 61.089844 52.035156 65.074219 47.222656 69.027344 C 46.578125 69.445312 45.925781 69.851562 45.273438 70.222656 C 44.535156 70.640625 43.773438 71.023438 43.042969 71.34375 C 41.242188 72.136719 39.695312 72.914062 38.1875 73.195312 C 35.882812 73.621094 33.722656 71.070312 32.09375 68.28125 C 33.933594 69.695312 36 70.496094 38.136719 70.410156 C 39.898438 70.34375 41.621094 69.566406 43.640625 68.578125 C 44.898438 67.964844 45.996094 67.261719 47.453125 66.109375 C 51.652344 62.574219 54.480469 57.832031 55.910156 51.871094 C 56.09375 50.164062 55.664062 48.25 54.117188 46.894531 C 52.851562 45.789062 51.199219 44.148438 49.441406 42.679688 Z M 49.441406 42.679688 " fill-opacity="0.97" fill-rule="nonzero"/><path fill="#d40000" d="M 47.375 61.953125 L 44.570312 60.546875 C 38.46875 60.859375 32.488281 60.550781 26.535156 60.132812 C 33.273438 61.5 40.292969 61.84375 47.375 61.953125 Z M 47.375 61.953125 " fill-opacity="0.97" fill-rule="nonzero"/><path fill="#d40000" d="M 46.335938 48.023438 C 46.957031 51.386719 48.488281 54.40625 51.324219 56.9375 C 41.667969 55.808594 33.121094 53.457031 25.046875 51.289062 C 16.328125 48.949219 8.457031 45.183594 1.046875 41.070312 C 0.734375 40.832031 0.707031 40.429688 1.121094 40.410156 C 8.511719 43.558594 16.15625 45.78125 24.027344 47.613281 C 31.753906 49.40625 39.964844 50.378906 46.335938 48.023438 Z M 46.335938 48.023438 " fill-opacity="0.97" fill-rule="nonzero"/><path fill="#d40000" d="M 51.898438 58.625 C 51.03125 59.773438 49.988281 60.65625 48.636719 61.070312 L 47.996094 61.097656 C 38.636719 58.738281 30.226562 56.003906 21.078125 53.027344 C 12.996094 50.394531 6.347656 47.519531 1.414062 44.429688 C 9.644531 47.898438 18.097656 50.742188 26.910156 53.078125 C 34.945312 55.207031 43.179688 57.28125 51.898438 58.625 Z M 51.898438 58.625 " fill-opacity="0.97" fill-rule="nonzero"/><path fill="#d40000" d="M 46.804688 44.800781 L 39.996094 39.136719 C 32.339844 35.066406 26.003906 30.257812 20.070312 25.476562 C 13.222656 19.964844 7.320312 13.570312 1.5625 6.707031 C 0.703125 5.554688 0.0195312 6.316406 1.488281 8.617188 L 3.03125 11.558594 C 10.039062 19.328125 17.863281 26.550781 26.039062 33.535156 C 28.390625 35.507812 30.933594 37.3125 33.773438 38.636719 C 38.136719 40.671875 42.5625 42.625 46.804688 44.800781 Z M 46.804688 44.800781 " fill-opacity="0.97" fill-rule="nonzero"/><path fill="#d40000" d="M 3.925781 24.789062 C 3.925781 24.789062 16.636719 30.125 3.925781 24.789062 Z M 3.925781 24.789062 " fill-opacity="0.97" fill-rule="nonzero"/><path fill="#d40000" d="M 41.65625 68.683594 C 35.078125 67.050781 28.402344 64.152344 22.0625 61.277344 C 26.070312 64.441406 30.796875 67.195312 36.617188 69.332031 C 38.914062 69.777344 40.574219 69.308594 41.65625 68.683594 Z M 41.65625 68.683594 " fill-opacity="0.97" fill-rule="nonzero"/><path fill="#d40000" d="M 42.800781 45.007812 C 40.234375 42.179688 36.726562 41.523438 33.203125 40.898438 C 27.722656 39.40625 23.394531 37.378906 19.515625 35.347656 C 13.488281 32.183594 8.539062 28.683594 3.722656 24.761719 C 8.164062 29.097656 12.652344 33.363281 17.863281 36.808594 C 22.015625 39.550781 26.644531 42.261719 32.5625 44.332031 C 35.996094 45.0625 39.460938 46.570312 42.800781 45.007812 Z M 42.800781 45.007812 " fill-opacity="0.97" fill-rule="nonzero"/><path fill="#d40000" d="M 45.347656 46.515625 C 42.199219 47.554688 38.804688 47.585938 35.5 47.628906 C 24.222656 47.773438 13.730469 44.554688 3.664062 39.445312 C 14.5625 43.433594 26.789062 46.699219 45.347656 46.515625 Z M 45.347656 46.515625 " fill-opacity="0.97" fill-rule="nonzero"/><path fill="#d40000" d="M 32.875 11.640625 C 36.453125 15.238281 40.234375 18.742188 44.332031 21.371094 C 48.101562 23.789062 51.898438 26.421875 56.304688 28.539062 C 58.988281 29.957031 62.085938 30.699219 63.714844 33.027344 C 64.789062 34.558594 66.023438 36.011719 65.378906 40.78125 C 65.210938 42.570312 64.464844 45.394531 62.914062 48.023438 C 61.667969 58.136719 57.113281 62.671875 52.832031 67.667969 C 48.246094 71.898438 43.660156 74.289062 39.070312 76.386719 C 38.652344 76.46875 37.34375 76.484375 36.8125 76.375 C 35.894531 76.1875 34.726562 75.792969 33.535156 74.515625 C 31.070312 71.089844 28.460938 68.507812 26.011719 68.035156 C 23.90625 67.628906 21.941406 68.527344 20.101562 71.957031 L 18.824219 73.976562 C 17.96875 75.5625 16.757812 76.929688 15.671875 78.375 C 15.199219 78.78125 15.03125 78.574219 15.125 78.324219 C 15.726562 77.359375 16.175781 76.257812 16.832031 75.25 C 17.8125 73.734375 18.519531 71.757812 19.359375 70.007812 C 21.058594 67.09375 22.839844 66.011719 24.660156 65.914062 C 27.15625 65.78125 29.765625 67.578125 32.277344 70.371094 C 33.1875 71.3125 34.035156 72.039062 34.773438 72.6875 C 36.027344 73.785156 36.9375 74.054688 37.710938 74.078125 C 38.433594 74.097656 39.171875 74.105469 39.949219 73.921875 C 40.71875 73.742188 41.519531 73.421875 42.390625 73.011719 C 43.386719 72.542969 44.25 72.152344 45.609375 71.152344 C 47.757812 69.953125 49.714844 68.285156 51.617188 66.503906 C 54.070312 63.847656 56.015625 60.957031 57.558594 57.882812 C 59.191406 54.625 60.59375 50.753906 59.703125 48.347656 C 57.589844 46.457031 55.039062 44.613281 52.246094 43.34375 C 48.402344 41.597656 44.601562 40.144531 42.15625 39.800781 C 46.175781 40.085938 50.851562 40.992188 56.820312 43.808594 C 58.816406 44.355469 60.582031 43.277344 61.382812 41.425781 C 62.050781 39.890625 62.261719 37.429688 60.714844 35.335938 C 59.59375 33.570312 57.285156 31.984375 54.410156 30.558594 C 46.078125 25.550781 38.992188 19.140625 32.875 11.640625 Z M 32.875 11.640625 " fill-opacity="0.97" fill-rule="nonzero"/><g clip-path="url(#3d033d5646)"><g transform="matrix(1, 0, 0, 1, 152, 27)"><g clip-path="url(#737f59ec00)"><g fill="#000000" fill-opacity="1"><g transform="translate(0.814755, 52.207802)"><g><path d="M 12.71875 -35.015625 C 10.289062 -34.085938 8.410156 -32.660156 7.078125 -30.734375 C 5.742188 -28.804688 5.078125 -26.441406 5.078125 -23.640625 C 5.078125 -22.367188 5.195312 -21.484375 5.4375 -20.984375 C 5.675781 -20.492188 5.796875 -20.210938 5.796875 -20.140625 C 3.953125 -20.140625 2.578125 -20.523438 1.671875 -21.296875 C 0.765625 -22.066406 0.3125 -23.34375 0.3125 -25.125 C 0.3125 -27.3125 1.207031 -29.4375 3 -31.5 C 4.789062 -33.570312 7.085938 -35.25 9.890625 -36.53125 C 12.691406 -37.8125 15.492188 -38.453125 18.296875 -38.453125 C 18.773438 -38.453125 19.460938 -38.414062 20.359375 -38.34375 L 20.8125 -6.8125 L 31.578125 -38.1875 L 35.171875 -38.1875 L 20.921875 0 L 13.53125 0 Z M 12.71875 -35.015625 "/></g></g></g><g fill="#000000" fill-opacity="1"><g transform="translate(32.341329, 52.207802)"><g><path d="M 7.484375 0.203125 C 4.953125 0.203125 2.953125 -0.441406 1.484375 -1.734375 C 0.015625 -3.035156 -0.71875 -5.085938 -0.71875 -7.890625 C -0.71875 -10.210938 -0.238281 -12.789062 0.71875 -15.625 C 1.675781 -18.46875 3.210938 -20.921875 5.328125 -22.984375 C 7.453125 -25.054688 10.117188 -26.09375 13.328125 -26.09375 C 17.703125 -26.09375 19.890625 -23.359375 19.890625 -17.890625 L 19.890625 -17.84375 C 19.992188 -17.8125 20.179688 -17.796875 20.453125 -17.796875 C 21.578125 -17.796875 22.875 -18.09375 24.34375 -18.6875 C 25.820312 -19.28125 27.15625 -20.003906 28.34375 -20.859375 L 28.8125 -19.484375 C 27.820312 -18.421875 26.53125 -17.519531 24.9375 -16.78125 C 23.351562 -16.050781 21.617188 -15.53125 19.734375 -15.21875 C 19.460938 -12.113281 18.757812 -9.398438 17.625 -7.078125 C 16.5 -4.753906 15.046875 -2.957031 13.265625 -1.6875 C 11.492188 -0.425781 9.566406 0.203125 7.484375 0.203125 Z M 9.53125 -4.40625 C 10.351562 -4.40625 11.171875 -4.875 11.984375 -5.8125 C 12.804688 -6.757812 13.523438 -8.039062 14.140625 -9.65625 C 14.765625 -11.28125 15.210938 -13.085938 15.484375 -15.078125 C 14.554688 -15.273438 14.09375 -15.988281 14.09375 -17.21875 C 14.09375 -18.625 14.625 -19.550781 15.6875 -20 C 15.613281 -21.125 15.441406 -21.898438 15.171875 -22.328125 C 14.898438 -22.753906 14.421875 -22.96875 13.734375 -22.96875 C 12.609375 -22.96875 11.515625 -22.144531 10.453125 -20.5 C 9.398438 -18.863281 8.546875 -16.898438 7.890625 -14.609375 C 7.242188 -12.316406 6.921875 -10.300781 6.921875 -8.5625 C 6.921875 -6.914062 7.109375 -5.8125 7.484375 -5.25 C 7.859375 -4.6875 8.539062 -4.40625 9.53125 -4.40625 Z M 9.53125 -4.40625 "/></g></g></g><g fill="#000000" fill-opacity="1"><g transform="translate(54.845659, 52.207802)"><g><path d="M 8.5625 -28.40625 C 7.4375 -28.40625 6.476562 -28.796875 5.6875 -29.578125 C 4.90625 -30.367188 4.515625 -31.328125 4.515625 -32.453125 C 4.515625 -33.578125 4.90625 -34.539062 5.6875 -35.34375 C 6.476562 -36.144531 7.4375 -36.546875 8.5625 -36.546875 C 9.6875 -36.546875 10.648438 -36.144531 11.453125 -35.34375 C 12.253906 -34.539062 12.65625 -33.578125 12.65625 -32.453125 C 12.65625 -31.328125 12.253906 -30.367188 11.453125 -29.578125 C 10.648438 -28.796875 9.6875 -28.40625 8.5625 -28.40625 Z M 5.078125 0.3125 C 3.429688 0.3125 2.101562 -0.195312 1.09375 -1.21875 C 0.09375 -2.25 -0.40625 -3.789062 -0.40625 -5.84375 C -0.40625 -6.695312 -0.269531 -7.804688 0 -9.171875 L 3.484375 -25.640625 L 10.875 -25.640625 L 7.171875 -8.203125 C 7.035156 -7.691406 6.96875 -7.144531 6.96875 -6.5625 C 6.96875 -5.875 7.128906 -5.382812 7.453125 -5.09375 C 7.785156 -4.8125 8.328125 -4.671875 9.078125 -4.671875 C 10.066406 -4.671875 10.988281 -5.085938 11.84375 -5.921875 C 12.695312 -6.753906 13.3125 -7.835938 13.6875 -9.171875 L 15.84375 -9.171875 C 14.570312 -5.484375 12.945312 -2.976562 10.96875 -1.65625 C 8.988281 -0.34375 7.023438 0.3125 5.078125 0.3125 Z M 5.078125 0.3125 "/></g></g></g><g fill="#000000" fill-opacity="1"><g transform="translate(68.532779, 52.207802)"><g><path d="M 7.328125 0.3125 C 4.796875 0.3125 2.828125 -0.34375 1.421875 -1.65625 C 0.0234375 -2.976562 -0.671875 -5.039062 -0.671875 -7.84375 C -0.671875 -10.195312 -0.203125 -12.789062 0.734375 -15.625 C 1.679688 -18.46875 3.1875 -20.921875 5.25 -22.984375 C 7.320312 -25.054688 9.945312 -26.09375 13.125 -26.09375 C 15.175781 -26.09375 16.632812 -25.644531 17.5 -24.75 C 18.375 -23.863281 18.8125 -22.738281 18.8125 -21.375 C 18.8125 -20.175781 18.554688 -19.253906 18.046875 -18.609375 C 17.535156 -17.960938 16.882812 -17.640625 16.09375 -17.640625 C 15.507812 -17.640625 14.910156 -17.84375 14.296875 -18.25 C 14.710938 -19.375 14.921875 -20.382812 14.921875 -21.28125 C 14.921875 -21.925781 14.800781 -22.4375 14.5625 -22.8125 C 14.320312 -23.1875 13.960938 -23.375 13.484375 -23.375 C 12.453125 -23.375 11.425781 -22.535156 10.40625 -20.859375 C 9.382812 -19.191406 8.546875 -17.160156 7.890625 -14.765625 C 7.242188 -12.367188 6.921875 -10.21875 6.921875 -8.3125 C 6.921875 -6.632812 7.207031 -5.492188 7.78125 -4.890625 C 8.363281 -4.296875 9.304688 -4 10.609375 -4 C 12.453125 -4 14.03125 -4.425781 15.34375 -5.28125 C 16.664062 -6.132812 18.113281 -7.429688 19.6875 -9.171875 L 21.421875 -9.171875 C 17.628906 -2.847656 12.929688 0.3125 7.328125 0.3125 Z M 7.328125 0.3125 "/></g></g></g><g fill="#000000" fill-opacity="1"><g transform="translate(88.21765, 52.207802)"><g><path d="M 7.328125 0.3125 C 4.796875 0.3125 2.828125 -0.34375 1.421875 -1.65625 C 0.0234375 -2.976562 -0.671875 -5.039062 -0.671875 -7.84375 C -0.671875 -10.195312 -0.207031 -12.789062 0.71875 -15.625 C 1.644531 -18.46875 3.148438 -20.921875 5.234375 -22.984375 C 7.316406 -25.054688 9.960938 -26.09375 13.171875 -26.09375 C 16.929688 -26.09375 18.8125 -24.453125 18.8125 -21.171875 C 18.8125 -19.253906 18.265625 -17.492188 17.171875 -15.890625 C 16.078125 -14.285156 14.625 -12.992188 12.8125 -12.015625 C 11 -11.046875 9.066406 -10.492188 7.015625 -10.359375 C 6.953125 -9.328125 6.921875 -8.644531 6.921875 -8.3125 C 6.921875 -6.632812 7.207031 -5.492188 7.78125 -4.890625 C 8.363281 -4.296875 9.304688 -4 10.609375 -4 C 12.453125 -4 14.03125 -4.425781 15.34375 -5.28125 C 16.664062 -6.132812 18.113281 -7.429688 19.6875 -9.171875 L 21.421875 -9.171875 C 17.628906 -2.847656 12.929688 0.3125 7.328125 0.3125 Z M 7.4375 -12.8125 C 8.695312 -12.882812 9.898438 -13.328125 11.046875 -14.140625 C 12.191406 -14.960938 13.113281 -16.003906 13.8125 -17.265625 C 14.507812 -18.535156 14.859375 -19.875 14.859375 -21.28125 C 14.859375 -22.675781 14.429688 -23.375 13.578125 -23.375 C 12.347656 -23.375 11.144531 -22.296875 9.96875 -20.140625 C 8.789062 -17.992188 7.945312 -15.550781 7.4375 -12.8125 Z M 7.4375 -12.8125 "/></g></g></g><g fill="#000000" fill-opacity="1"><g transform="translate(107.902522, 52.207802)"><g/></g><g transform="translate(119.026503, 52.207802)"><g><path d="M 7.484375 0.203125 C 4.953125 0.203125 2.953125 -0.441406 1.484375 -1.734375 C 0.015625 -3.035156 -0.71875 -5.085938 -0.71875 -7.890625 C -0.71875 -10.210938 -0.238281 -12.789062 0.71875 -15.625 C 1.675781 -18.46875 3.210938 -20.921875 5.328125 -22.984375 C 7.453125 -25.054688 10.117188 -26.09375 13.328125 -26.09375 C 17.703125 -26.09375 19.890625 -23.359375 19.890625 -17.890625 L 19.890625 -17.84375 C 19.992188 -17.8125 20.179688 -17.796875 20.453125 -17.796875 C 21.578125 -17.796875 22.875 -18.09375 24.34375 -18.6875 C 25.820312 -19.28125 27.15625 -20.003906 28.34375 -20.859375 L 28.8125 -19.484375 C 27.820312 -18.421875 26.53125 -17.519531 24.9375 -16.78125 C 23.351562 -16.050781 21.617188 -15.53125 19.734375 -15.21875 C 19.460938 -12.113281 18.757812 -9.398438 17.625 -7.078125 C 16.5 -4.753906 15.046875 -2.957031 13.265625 -1.6875 C 11.492188 -0.425781 9.566406 0.203125 7.484375 0.203125 Z M 9.53125 -4.40625 C 10.351562 -4.40625 11.171875 -4.875 11.984375 -5.8125 C 12.804688 -6.757812 13.523438 -8.039062 14.140625 -9.65625 C 14.765625 -11.28125 15.210938 -13.085938 15.484375 -15.078125 C 14.554688 -15.273438 14.09375 -15.988281 14.09375 -17.21875 C 14.09375 -18.625 14.625 -19.550781 15.6875 -20 C 15.613281 -21.125 15.441406 -21.898438 15.171875 -22.328125 C 14.898438 -22.753906 14.421875 -22.96875 13.734375 -22.96875 C 12.609375 -22.96875 11.515625 -22.144531 10.453125 -20.5 C 9.398438 -18.863281 8.546875 -16.898438 7.890625 -14.609375 C 7.242188 -12.316406 6.921875 -10.300781 6.921875 -8.5625 C 6.921875 -6.914062 7.109375 -5.8125 7.484375 -5.25 C 7.859375 -4.6875 8.539062 -4.40625 9.53125 -4.40625 Z M 9.53125 -4.40625 "/></g></g></g><g clip-path="url(#34510b70f6)"><g fill="#000000" fill-opacity="1"><g transform="translate(141.530833, 52.207802)"><g><path d="M -4.609375 12.8125 C -6.210938 12.8125 -7.617188 12.289062 -8.828125 11.25 C -10.046875 10.207031 -10.65625 8.882812 -10.65625 7.28125 C -10.65625 5.8125 -10.28125 4.597656 -9.53125 3.640625 C -8.78125 2.679688 -7.804688 1.921875 -6.609375 1.359375 C -5.410156 0.796875 -3.820312 0.207031 -1.84375 -0.40625 L 4.359375 -29.6875 C 5.046875 -32.96875 6.25 -35.238281 7.96875 -36.5 C 9.695312 -37.757812 11.601562 -38.390625 13.6875 -38.390625 C 15.289062 -38.390625 16.695312 -37.867188 17.90625 -36.828125 C 19.125 -35.785156 19.734375 -34.460938 19.734375 -32.859375 C 19.734375 -32.078125 19.679688 -31.378906 19.578125 -30.765625 L 17.171875 -30.765625 C 17.242188 -31.515625 17.28125 -31.972656 17.28125 -32.140625 C 17.28125 -32.691406 17.09375 -33.117188 16.71875 -33.421875 C 16.34375 -33.734375 15.878906 -33.890625 15.328125 -33.890625 C 14.609375 -33.890625 13.90625 -33.570312 13.21875 -32.9375 C 12.539062 -32.300781 12.046875 -31.21875 11.734375 -29.6875 L 10.875 -25.640625 L 14.609375 -25.640625 L 14.25 -23.578125 L 10.453125 -23.578125 L 4.5625 4.09375 C 3.875 7.414062 2.691406 9.695312 1.015625 10.9375 C -0.648438 12.1875 -2.523438 12.8125 -4.609375 12.8125 Z M -5.796875 8.25 C -4.429688 8.25 -3.457031 6.914062 -2.875 4.25 L -2.203125 1.28125 C -4.015625 1.894531 -5.40625 2.601562 -6.375 3.40625 C -7.351562 4.207031 -7.84375 5.257812 -7.84375 6.5625 C -7.84375 6.96875 -7.632812 7.347656 -7.21875 7.703125 C -6.8125 8.066406 -6.335938 8.25 -5.796875 8.25 Z M -5.796875 8.25 "/></g></g></g></g><g fill="#000000" fill-opacity="1"><g transform="translate(155.217953, 52.207802)"><g/></g><g transform="translate(166.341933, 52.207802)"><g><path d="M 15.328125 -33.9375 L 14.71875 -33.9375 C 11.675781 -33.9375 9.304688 -33.175781 7.609375 -31.65625 C 5.921875 -30.132812 5.078125 -27.441406 5.078125 -23.578125 C 5.078125 -22.316406 5.195312 -21.4375 5.4375 -20.9375 C 5.675781 -20.445312 5.796875 -20.164062 5.796875 -20.09375 C 3.953125 -20.09375 2.578125 -20.476562 1.671875 -21.25 C 0.765625 -22.019531 0.3125 -23.289062 0.3125 -25.0625 C 0.3125 -27.488281 0.90625 -29.703125 2.09375 -31.703125 C 3.289062 -33.703125 5.195312 -35.316406 7.8125 -36.546875 C 10.425781 -37.773438 13.753906 -38.390625 17.796875 -38.390625 C 20.046875 -38.390625 22.46875 -38.1875 25.0625 -37.78125 C 27.25 -37.40625 29.195312 -37.21875 30.90625 -37.21875 C 33.09375 -37.21875 35.078125 -37.578125 36.859375 -38.296875 C 36.785156 -36.078125 36.21875 -34.4375 35.15625 -33.375 C 34.101562 -32.3125 32.535156 -31.78125 30.453125 -31.78125 C 29.359375 -31.78125 28.265625 -31.863281 27.171875 -32.03125 C 26.078125 -32.207031 24.519531 -32.5 22.5 -32.90625 L 15.4375 0 L 8.046875 0 Z M 15.328125 -33.9375 "/></g></g></g><g fill="#000000" fill-opacity="1"><g transform="translate(190.999282, 52.207802)"><g><path d="M 3.484375 -25.640625 L 10.875 -25.640625 L 10.203125 -22.453125 C 11.359375 -23.484375 12.40625 -24.269531 13.34375 -24.8125 C 14.289062 -25.363281 15.3125 -25.640625 16.40625 -25.640625 C 17.5 -25.640625 18.359375 -25.257812 18.984375 -24.5 C 19.617188 -23.75 19.9375 -22.84375 19.9375 -21.78125 C 19.9375 -20.789062 19.613281 -19.921875 18.96875 -19.171875 C 18.320312 -18.421875 17.414062 -18.046875 16.25 -18.046875 C 15.5 -18.046875 14.992188 -18.222656 14.734375 -18.578125 C 14.484375 -18.941406 14.289062 -19.460938 14.15625 -20.140625 C 14.050781 -20.585938 13.945312 -20.910156 13.84375 -21.109375 C 13.738281 -21.316406 13.550781 -21.421875 13.28125 -21.421875 C 12.5625 -21.421875 11.953125 -21.273438 11.453125 -20.984375 C 10.960938 -20.703125 10.320312 -20.203125 9.53125 -19.484375 L 5.4375 0 L -1.953125 0 Z M 3.484375 -25.640625 "/></g></g></g><g fill="#000000" fill-opacity="1"><g transform="translate(210.274034, 52.207802)"><g><path d="M 8.5625 -28.40625 C 7.4375 -28.40625 6.476562 -28.796875 5.6875 -29.578125 C 4.90625 -30.367188 4.515625 -31.328125 4.515625 -32.453125 C 4.515625 -33.578125 4.90625 -34.539062 5.6875 -35.34375 C 6.476562 -36.144531 7.4375 -36.546875 8.5625 -36.546875 C 9.6875 -36.546875 10.648438 -36.144531 11.453125 -35.34375 C 12.253906 -34.539062 12.65625 -33.578125 12.65625 -32.453125 C 12.65625 -31.328125 12.253906 -30.367188 11.453125 -29.578125 C 10.648438 -28.796875 9.6875 -28.40625 8.5625 -28.40625 Z M 5.078125 0.3125 C 3.429688 0.3125 2.101562 -0.195312 1.09375 -1.21875 C 0.09375 -2.25 -0.40625 -3.789062 -0.40625 -5.84375 C -0.40625 -6.695312 -0.269531 -7.804688 0 -9.171875 L 3.484375 -25.640625 L 10.875 -25.640625 L 7.171875 -8.203125 C 7.035156 -7.691406 6.96875 -7.144531 6.96875 -6.5625 C 6.96875 -5.875 7.128906 -5.382812 7.453125 -5.09375 C 7.785156 -4.8125 8.328125 -4.671875 9.078125 -4.671875 C 10.066406 -4.671875 10.988281 -5.085938 11.84375 -5.921875 C 12.695312 -6.753906 13.3125 -7.835938 13.6875 -9.171875 L 15.84375 -9.171875 C 14.570312 -5.484375 12.945312 -2.976562 10.96875 -1.65625 C 8.988281 -0.34375 7.023438 0.3125 5.078125 0.3125 Z M 5.078125 0.3125 "/></g></g></g><g fill="#000000" fill-opacity="1"><g transform="translate(223.961154, 52.207802)"><g><path d="M 5.84375 0.3125 C 4.207031 0.3125 2.820312 -0.00390625 1.6875 -0.640625 C 0.5625 -1.273438 -0.269531 -2.09375 -0.8125 -3.09375 C -1.363281 -4.101562 -1.640625 -5.15625 -1.640625 -6.25 C -1.640625 -7.382812 -1.375 -8.367188 -0.84375 -9.203125 C -0.3125 -10.035156 0.328125 -10.640625 1.078125 -11.015625 C 2.410156 -13.410156 3.570312 -15.828125 4.5625 -18.265625 C 5.550781 -20.710938 6.488281 -23.359375 7.375 -26.203125 L 14.96875 -27.21875 C 15.132812 -22.84375 15.425781 -18.109375 15.84375 -13.015625 C 16.007812 -10.972656 16.09375 -9.488281 16.09375 -8.5625 C 16.09375 -7.769531 16.023438 -7.117188 15.890625 -6.609375 C 17.492188 -7.535156 18.722656 -8.390625 19.578125 -9.171875 L 21.734375 -9.171875 C 19.546875 -6.648438 16.929688 -4.515625 13.890625 -2.765625 C 12.898438 -1.703125 11.675781 -0.921875 10.21875 -0.421875 C 8.769531 0.0664062 7.3125 0.3125 5.84375 0.3125 Z M 4.203125 -3.75 C 5.460938 -3.75 6.519531 -4.125 7.375 -4.875 C 8.226562 -5.625 8.65625 -6.835938 8.65625 -8.515625 C 8.65625 -9.535156 8.554688 -10.96875 8.359375 -12.8125 C 8.015625 -16.707031 7.789062 -19.320312 7.6875 -20.65625 C 6.863281 -17.957031 5.476562 -14.726562 3.53125 -10.96875 C 4.320312 -10.5625 4.71875 -9.960938 4.71875 -9.171875 C 4.71875 -8.523438 4.503906 -7.945312 4.078125 -7.4375 C 3.648438 -6.925781 3.109375 -6.671875 2.453125 -6.671875 C 1.742188 -6.671875 1.285156 -6.890625 1.078125 -7.328125 C 1.078125 -6.097656 1.320312 -5.191406 1.8125 -4.609375 C 2.3125 -4.035156 3.109375 -3.75 4.203125 -3.75 Z M 4.203125 -3.75 "/></g></g></g><g fill="#000000" fill-opacity="1"><g transform="translate(243.543508, 52.207802)"><g><path d="M 31.171875 0.3125 C 29.085938 0.3125 27.554688 -0.242188 26.578125 -1.359375 C 25.609375 -2.472656 25.125 -3.847656 25.125 -5.484375 C 25.125 -6.203125 25.207031 -7.015625 25.375 -7.921875 C 25.550781 -8.828125 25.734375 -9.707031 25.921875 -10.5625 C 26.109375 -11.414062 26.234375 -11.960938 26.296875 -12.203125 C 26.566406 -13.398438 26.820312 -14.578125 27.0625 -15.734375 C 27.300781 -16.898438 27.421875 -17.84375 27.421875 -18.5625 C 27.421875 -20.300781 26.804688 -21.171875 25.578125 -21.171875 C 24.691406 -21.171875 23.90625 -20.734375 23.21875 -19.859375 C 22.539062 -18.992188 21.992188 -17.859375 21.578125 -16.453125 L 18.09375 0 L 10.71875 0 L 14.453125 -17.6875 C 14.554688 -18.09375 14.609375 -18.519531 14.609375 -18.96875 C 14.609375 -20.46875 14.097656 -21.21875 13.078125 -21.21875 C 12.117188 -21.21875 11.285156 -20.78125 10.578125 -19.90625 C 9.878906 -19.039062 9.328125 -17.890625 8.921875 -16.453125 L 5.4375 0 L -1.953125 0 L 3.484375 -25.640625 L 10.875 -25.640625 L 10.296875 -22.96875 C 12.046875 -24.914062 14.132812 -25.890625 16.5625 -25.890625 C 19.5625 -25.890625 21.320312 -24.421875 21.84375 -21.484375 C 23.71875 -24.390625 26.09375 -25.84375 28.96875 -25.84375 C 30.707031 -25.84375 32.085938 -25.363281 33.109375 -24.40625 C 34.140625 -23.445312 34.65625 -21.992188 34.65625 -20.046875 C 34.65625 -19.054688 34.535156 -17.953125 34.296875 -16.734375 C 34.054688 -15.523438 33.710938 -14.046875 33.265625 -12.296875 C 32.992188 -11.242188 32.742188 -10.210938 32.515625 -9.203125 C 32.296875 -8.191406 32.1875 -7.394531 32.1875 -6.8125 C 32.1875 -6.132812 32.34375 -5.609375 32.65625 -5.234375 C 32.96875 -4.859375 33.5 -4.671875 34.25 -4.671875 C 35.269531 -4.671875 36.085938 -5.035156 36.703125 -5.765625 C 37.316406 -6.503906 37.929688 -7.640625 38.546875 -9.171875 L 40.703125 -9.171875 C 39.441406 -5.410156 37.976562 -2.890625 36.3125 -1.609375 C 34.65625 -0.328125 32.941406 0.3125 31.171875 0.3125 Z M 31.171875 0.3125 "/></g></g></g><g fill="#000000" fill-opacity="1"><g transform="translate(282.093061, 52.207802)"><g><path d="M 6.15625 0.3125 C 4.207031 0.3125 2.582031 -0.351562 1.28125 -1.6875 C -0.0195312 -3.019531 -0.671875 -5.109375 -0.671875 -7.953125 C -0.671875 -10.472656 -0.164062 -13.125 0.84375 -15.90625 C 1.851562 -18.695312 3.359375 -21.054688 5.359375 -22.984375 C 7.359375 -24.921875 9.742188 -25.890625 12.515625 -25.890625 C 13.910156 -25.890625 14.945312 -25.648438 15.625 -25.171875 C 16.3125 -24.691406 16.65625 -24.0625 16.65625 -23.28125 L 16.65625 -22.921875 L 17.21875 -25.640625 L 24.609375 -25.640625 L 20.921875 -8.203125 C 20.785156 -7.691406 20.71875 -7.144531 20.71875 -6.5625 C 20.71875 -5.09375 21.414062 -4.359375 22.8125 -4.359375 C 23.769531 -4.359375 24.597656 -4.800781 25.296875 -5.6875 C 25.992188 -6.570312 26.550781 -7.734375 26.96875 -9.171875 L 29.125 -9.171875 C 27.851562 -5.484375 26.285156 -2.976562 24.421875 -1.65625 C 22.566406 -0.34375 20.695312 0.3125 18.8125 0.3125 C 17.375 0.3125 16.21875 -0.0859375 15.34375 -0.890625 C 14.476562 -1.703125 13.960938 -2.875 13.796875 -4.40625 C 12.796875 -3.007812 11.6875 -1.875 10.46875 -1 C 9.257812 -0.125 7.820312 0.3125 6.15625 0.3125 Z M 9.484375 -4.671875 C 10.335938 -4.671875 11.179688 -5.070312 12.015625 -5.875 C 12.859375 -6.675781 13.429688 -7.773438 13.734375 -9.171875 L 16.203125 -20.765625 C 16.203125 -21.203125 16.03125 -21.632812 15.6875 -22.0625 C 15.34375 -22.488281 14.8125 -22.703125 14.09375 -22.703125 C 12.726562 -22.703125 11.5 -21.90625 10.40625 -20.3125 C 9.3125 -18.726562 8.457031 -16.816406 7.84375 -14.578125 C 7.226562 -12.347656 6.921875 -10.375 6.921875 -8.65625 C 6.921875 -6.945312 7.164062 -5.851562 7.65625 -5.375 C 8.15625 -4.90625 8.765625 -4.671875 9.484375 -4.671875 Z M 9.484375 -4.671875 "/></g></g></g></g></g></g><g fill="#d80c0c" fill-opacity="1"><g transform="translate(144.263559, 32.595879)"><g><path d="M 10.65625 -22.8125 C 8.976562 -22.257812 7.675781 -21.34375 6.75 -20.0625 C 5.832031 -18.789062 5.375 -17.21875 5.375 -15.34375 C 5.375 -14.5 5.453125 -13.921875 5.609375 -13.609375 C 5.765625 -13.304688 5.84375 -13.117188 5.84375 -13.046875 C 3.476562 -13.046875 2.296875 -14.054688 2.296875 -16.078125 C 2.296875 -17.441406 2.820312 -18.816406 3.875 -20.203125 C 4.925781 -21.585938 6.273438 -22.71875 7.921875 -23.59375 C 9.566406 -24.46875 11.207031 -24.90625 12.84375 -24.90625 C 13.664062 -24.90625 14.507812 -24.75 15.375 -24.4375 L 14.609375 -6.9375 L 21.921875 -24.4375 L 26.703125 -24.4375 L 23.203125 0 L 18.421875 0 L 20.546875 -14.90625 L 14.3125 0 L 9.765625 0 L 10.421875 -14.96875 L 4.875 0 L 2.21875 0 Z M 10.65625 -22.8125 "/></g></g></g><g fill="#d80c0c" fill-opacity="1"><g transform="translate(171.158703, 32.595879)"><g><path d="M 3.984375 0.203125 C 2.722656 0.203125 1.671875 -0.226562 0.828125 -1.09375 C -0.015625 -1.957031 -0.4375 -3.304688 -0.4375 -5.140625 C -0.4375 -6.785156 -0.109375 -8.507812 0.546875 -10.3125 C 1.203125 -12.113281 2.175781 -13.640625 3.46875 -14.890625 C 4.757812 -16.140625 6.304688 -16.765625 8.109375 -16.765625 C 9.015625 -16.765625 9.6875 -16.609375 10.125 -16.296875 C 10.570312 -15.992188 10.796875 -15.585938 10.796875 -15.078125 L 10.796875 -14.84375 L 11.15625 -16.609375 L 15.9375 -16.609375 L 13.546875 -5.3125 C 13.460938 -4.976562 13.421875 -4.625 13.421875 -4.25 C 13.421875 -3.300781 13.875 -2.828125 14.78125 -2.828125 C 15.394531 -2.828125 15.925781 -3.113281 16.375 -3.6875 C 16.832031 -4.257812 17.195312 -5.007812 17.46875 -5.9375 L 18.859375 -5.9375 C 18.035156 -3.550781 17.019531 -1.929688 15.8125 -1.078125 C 14.613281 -0.222656 13.40625 0.203125 12.1875 0.203125 C 11.257812 0.203125 10.507812 -0.0546875 9.9375 -0.578125 C 9.375 -1.097656 9.039062 -1.859375 8.9375 -2.859375 C 8.289062 -1.953125 7.570312 -1.210938 6.78125 -0.640625 C 6 -0.078125 5.066406 0.203125 3.984375 0.203125 Z M 6.140625 -3.015625 C 6.691406 -3.015625 7.238281 -3.273438 7.78125 -3.796875 C 8.320312 -4.316406 8.695312 -5.03125 8.90625 -5.9375 L 10.5 -13.453125 C 10.5 -13.734375 10.382812 -14.007812 10.15625 -14.28125 C 9.9375 -14.5625 9.59375 -14.703125 9.125 -14.703125 C 8.238281 -14.703125 7.441406 -14.1875 6.734375 -13.15625 C 6.023438 -12.132812 5.472656 -10.894531 5.078125 -9.4375 C 4.679688 -7.988281 4.484375 -6.710938 4.484375 -5.609375 C 4.484375 -4.503906 4.644531 -3.796875 4.96875 -3.484375 C 5.289062 -3.171875 5.679688 -3.015625 6.140625 -3.015625 Z M 6.140625 -3.015625 "/></g></g></g><g fill="#d80c0c" fill-opacity="1"><g transform="translate(189.387692, 32.595879)"><g><path d="M 3.984375 0.203125 C 2.722656 0.203125 1.671875 -0.226562 0.828125 -1.09375 C -0.015625 -1.957031 -0.4375 -3.304688 -0.4375 -5.140625 C -0.4375 -6.785156 -0.109375 -8.507812 0.546875 -10.3125 C 1.203125 -12.113281 2.175781 -13.640625 3.46875 -14.890625 C 4.757812 -16.140625 6.304688 -16.765625 8.109375 -16.765625 C 9.015625 -16.765625 9.6875 -16.609375 10.125 -16.296875 C 10.570312 -15.992188 10.796875 -15.585938 10.796875 -15.078125 L 10.796875 -14.9375 L 12.421875 -22.578125 L 17.328125 -23.25 L 13.515625 -5.3125 C 13.421875 -4.976562 13.375 -4.625 13.375 -4.25 C 13.375 -3.8125 13.476562 -3.492188 13.6875 -3.296875 C 13.90625 -3.109375 14.257812 -3.015625 14.75 -3.015625 C 15.363281 -3.015625 15.894531 -3.28125 16.34375 -3.8125 C 16.800781 -4.34375 17.164062 -5.050781 17.4375 -5.9375 L 18.828125 -5.9375 C 17.472656 -1.976562 15.25 0 12.15625 0 C 11.25 0 10.507812 -0.242188 9.9375 -0.734375 C 9.375 -1.222656 9.03125 -1.929688 8.90625 -2.859375 C 8.320312 -1.972656 7.625 -1.238281 6.8125 -0.65625 C 6.007812 -0.0820312 5.066406 0.203125 3.984375 0.203125 Z M 6.140625 -3.015625 C 6.671875 -3.015625 7.207031 -3.257812 7.75 -3.75 C 8.289062 -4.238281 8.660156 -4.914062 8.859375 -5.78125 L 8.859375 -5.9375 L 10.5 -13.546875 C 10.289062 -14.316406 9.832031 -14.703125 9.125 -14.703125 C 8.238281 -14.703125 7.441406 -14.1875 6.734375 -13.15625 C 6.023438 -12.132812 5.472656 -10.894531 5.078125 -9.4375 C 4.679688 -7.988281 4.484375 -6.710938 4.484375 -5.609375 C 4.484375 -4.503906 4.644531 -3.796875 4.96875 -3.484375 C 5.289062 -3.171875 5.679688 -3.015625 6.140625 -3.015625 Z M 6.140625 -3.015625 "/></g></g></g><g fill="#d80c0c" fill-opacity="1"><g transform="translate(207.583477, 32.595879)"><g><path d="M 5.1875 8.296875 C 4.125 8.296875 3.238281 8.019531 2.53125 7.46875 C 1.820312 6.914062 1.46875 6.117188 1.46875 5.078125 C 1.46875 3.816406 1.972656 2.800781 2.984375 2.03125 C 4.003906 1.269531 5.300781 0.640625 6.875 0.140625 L 7.265625 -1.65625 C 6.628906 -0.945312 5.976562 -0.457031 5.3125 -0.1875 C 4.644531 0.0703125 3.96875 0.203125 3.28125 0.203125 C 2.21875 0.203125 1.359375 -0.128906 0.703125 -0.796875 C 0.0546875 -1.460938 -0.265625 -2.457031 -0.265625 -3.78125 C -0.265625 -4.332031 -0.175781 -5.050781 0 -5.9375 L 2.265625 -16.609375 L 7.046875 -16.609375 L 4.65625 -5.3125 C 4.582031 -5.050781 4.546875 -4.773438 4.546875 -4.484375 C 4.546875 -3.503906 4.878906 -3.015625 5.546875 -3.015625 C 6.117188 -3.015625 6.625 -3.265625 7.0625 -3.765625 C 7.507812 -4.265625 7.867188 -4.925781 8.140625 -5.75 L 10.453125 -16.609375 L 15.234375 -16.609375 L 11.953125 -1.203125 C 13.015625 -1.554688 13.863281 -2.085938 14.5 -2.796875 C 15.144531 -3.503906 15.691406 -4.550781 16.140625 -5.9375 L 17.53125 -5.9375 C 16.9375 -3.96875 16.128906 -2.523438 15.109375 -1.609375 C 14.085938 -0.691406 12.9375 -0.0664062 11.65625 0.265625 L 11.15625 2.65625 C 10.71875 4.800781 9.953125 6.273438 8.859375 7.078125 C 7.773438 7.890625 6.550781 8.296875 5.1875 8.296875 Z M 4.421875 5.71875 C 4.796875 5.71875 5.160156 5.460938 5.515625 4.953125 C 5.867188 4.441406 6.144531 3.707031 6.34375 2.75 L 6.546875 1.796875 C 4.367188 2.585938 3.28125 3.523438 3.28125 4.609375 C 3.28125 4.898438 3.378906 5.15625 3.578125 5.375 C 3.785156 5.601562 4.066406 5.71875 4.421875 5.71875 Z M 4.421875 5.71875 "/></g></g></g><g fill="#d80c0c" fill-opacity="1"><g transform="translate(224.484313, 32.595879)"><g><path d="M 3.984375 0.203125 C 2.722656 0.203125 1.671875 -0.226562 0.828125 -1.09375 C -0.015625 -1.957031 -0.4375 -3.304688 -0.4375 -5.140625 C -0.4375 -6.785156 -0.109375 -8.507812 0.546875 -10.3125 C 1.203125 -12.113281 2.175781 -13.640625 3.46875 -14.890625 C 4.757812 -16.140625 6.304688 -16.765625 8.109375 -16.765625 C 9.015625 -16.765625 9.6875 -16.609375 10.125 -16.296875 C 10.570312 -15.992188 10.796875 -15.585938 10.796875 -15.078125 L 10.796875 -14.84375 L 11.15625 -16.609375 L 15.9375 -16.609375 L 13.546875 -5.3125 C 13.460938 -4.976562 13.421875 -4.625 13.421875 -4.25 C 13.421875 -3.300781 13.875 -2.828125 14.78125 -2.828125 C 15.394531 -2.828125 15.925781 -3.113281 16.375 -3.6875 C 16.832031 -4.257812 17.195312 -5.007812 17.46875 -5.9375 L 18.859375 -5.9375 C 18.035156 -3.550781 17.019531 -1.929688 15.8125 -1.078125 C 14.613281 -0.222656 13.40625 0.203125 12.1875 0.203125 C 11.257812 0.203125 10.507812 -0.0546875 9.9375 -0.578125 C 9.375 -1.097656 9.039062 -1.859375 8.9375 -2.859375 C 8.289062 -1.953125 7.570312 -1.210938 6.78125 -0.640625 C 6 -0.078125 5.066406 0.203125 3.984375 0.203125 Z M 6.140625 -3.015625 C 6.691406 -3.015625 7.238281 -3.273438 7.78125 -3.796875 C 8.320312 -4.316406 8.695312 -5.03125 8.90625 -5.9375 L 10.5 -13.453125 C 10.5 -13.734375 10.382812 -14.007812 10.15625 -14.28125 C 9.9375 -14.5625 9.59375 -14.703125 9.125 -14.703125 C 8.238281 -14.703125 7.441406 -14.1875 6.734375 -13.15625 C 6.023438 -12.132812 5.472656 -10.894531 5.078125 -9.4375 C 4.679688 -7.988281 4.484375 -6.710938 4.484375 -5.609375 C 4.484375 -4.503906 4.644531 -3.796875 4.96875 -3.484375 C 5.289062 -3.171875 5.679688 -3.015625 6.140625 -3.015625 Z M 6.140625 -3.015625 "/></g></g></g><g fill="#d80c0c" fill-opacity="1"><g transform="translate(242.713302, 32.595879)"><g><path d="M 2.53125 -17.828125 L 7.3125 -17.828125 L 6.78125 -15.34375 C 7.882812 -16.289062 9.175781 -16.765625 10.65625 -16.765625 C 11.894531 -16.765625 12.878906 -16.351562 13.609375 -15.53125 C 14.335938 -14.71875 14.703125 -13.378906 14.703125 -11.515625 C 14.703125 -9.773438 14.445312 -8.007812 13.9375 -6.21875 C 13.4375 -4.4375 12.578125 -2.921875 11.359375 -1.671875 C 10.140625 -0.421875 8.535156 0.203125 6.546875 0.203125 C 5.128906 0.203125 4.1875 -0.195312 3.71875 -1 L 2 7.109375 L -3.015625 8.296875 Z M 5.515625 -2.6875 C 6.578125 -2.6875 7.457031 -3.179688 8.15625 -4.171875 C 8.851562 -5.171875 9.359375 -6.363281 9.671875 -7.75 C 9.992188 -9.132812 10.15625 -10.425781 10.15625 -11.625 C 10.15625 -13.457031 9.601562 -14.375 8.5 -14.375 C 8.101562 -14.375 7.695312 -14.226562 7.28125 -13.9375 C 6.875 -13.65625 6.515625 -13.257812 6.203125 -12.75 L 4.25 -3.453125 C 4.425781 -2.941406 4.847656 -2.6875 5.515625 -2.6875 Z M 5.515625 -2.6875 "/></g></g></g><g fill="#d80c0c" fill-opacity="1"><g transform="translate(259.016459, 32.595879)"><g><path d="M 3.984375 0.203125 C 2.722656 0.203125 1.671875 -0.226562 0.828125 -1.09375 C -0.015625 -1.957031 -0.4375 -3.304688 -0.4375 -5.140625 C -0.4375 -6.785156 -0.109375 -8.507812 0.546875 -10.3125 C 1.203125 -12.113281 2.175781 -13.640625 3.46875 -14.890625 C 4.757812 -16.140625 6.304688 -16.765625 8.109375 -16.765625 C 9.015625 -16.765625 9.6875 -16.609375 10.125 -16.296875 C 10.570312 -15.992188 10.796875 -15.585938 10.796875 -15.078125 L 10.796875 -14.84375 L 11.15625 -16.609375 L 15.9375 -16.609375 L 13.546875 -5.3125 C 13.460938 -4.976562 13.421875 -4.625 13.421875 -4.25 C 13.421875 -3.300781 13.875 -2.828125 14.78125 -2.828125 C 15.394531 -2.828125 15.925781 -3.113281 16.375 -3.6875 C 16.832031 -4.257812 17.195312 -5.007812 17.46875 -5.9375 L 18.859375 -5.9375 C 18.035156 -3.550781 17.019531 -1.929688 15.8125 -1.078125 C 14.613281 -0.222656 13.40625 0.203125 12.1875 0.203125 C 11.257812 0.203125 10.507812 -0.0546875 9.9375 -0.578125 C 9.375 -1.097656 9.039062 -1.859375 8.9375 -2.859375 C 8.289062 -1.953125 7.570312 -1.210938 6.78125 -0.640625 C 6 -0.078125 5.066406 0.203125 3.984375 0.203125 Z M 6.140625 -3.015625 C 6.691406 -3.015625 7.238281 -3.273438 7.78125 -3.796875 C 8.320312 -4.316406 8.695312 -5.03125 8.90625 -5.9375 L 10.5 -13.453125 C 10.5 -13.734375 10.382812 -14.007812 10.15625 -14.28125 C 9.9375 -14.5625 9.59375 -14.703125 9.125 -14.703125 C 8.238281 -14.703125 7.441406 -14.1875 6.734375 -13.15625 C 6.023438 -12.132812 5.472656 -10.894531 5.078125 -9.4375 C 4.679688 -7.988281 4.484375 -6.710938 4.484375 -5.609375 C 4.484375 -4.503906 4.644531 -3.796875 4.96875 -3.484375 C 5.289062 -3.171875 5.679688 -3.015625 6.140625 -3.015625 Z M 6.140625 -3.015625 "/></g></g></g><g fill="#d80c0c" fill-opacity="1"><g transform="translate(277.245448, 32.595879)"><g><path d="M 3.984375 0.203125 C 2.722656 0.203125 1.671875 -0.226562 0.828125 -1.09375 C -0.015625 -1.957031 -0.4375 -3.304688 -0.4375 -5.140625 C -0.4375 -6.785156 -0.109375 -8.507812 0.546875 -10.3125 C 1.203125 -12.113281 2.175781 -13.640625 3.46875 -14.890625 C 4.757812 -16.140625 6.304688 -16.765625 8.109375 -16.765625 C 9.015625 -16.765625 9.6875 -16.609375 10.125 -16.296875 C 10.570312 -15.992188 10.796875 -15.585938 10.796875 -15.078125 L 10.796875 -14.9375 L 12.421875 -22.578125 L 17.328125 -23.25 L 13.515625 -5.3125 C 13.421875 -4.976562 13.375 -4.625 13.375 -4.25 C 13.375 -3.8125 13.476562 -3.492188 13.6875 -3.296875 C 13.90625 -3.109375 14.257812 -3.015625 14.75 -3.015625 C 15.363281 -3.015625 15.894531 -3.28125 16.34375 -3.8125 C 16.800781 -4.34375 17.164062 -5.050781 17.4375 -5.9375 L 18.828125 -5.9375 C 17.472656 -1.976562 15.25 0 12.15625 0 C 11.25 0 10.507812 -0.242188 9.9375 -0.734375 C 9.375 -1.222656 9.03125 -1.929688 8.90625 -2.859375 C 8.320312 -1.972656 7.625 -1.238281 6.8125 -0.65625 C 6.007812 -0.0820312 5.066406 0.203125 3.984375 0.203125 Z M 6.140625 -3.015625 C 6.671875 -3.015625 7.207031 -3.257812 7.75 -3.75 C 8.289062 -4.238281 8.660156 -4.914062 8.859375 -5.78125 L 8.859375 -5.9375 L 10.5 -13.546875 C 10.289062 -14.316406 9.832031 -14.703125 9.125 -14.703125 C 8.238281 -14.703125 7.441406 -14.1875 6.734375 -13.15625 C 6.023438 -12.132812 5.472656 -10.894531 5.078125 -9.4375 C 4.679688 -7.988281 4.484375 -6.710938 4.484375 -5.609375 C 4.484375 -4.503906 4.644531 -3.796875 4.96875 -3.484375 C 5.289062 -3.171875 5.679688 -3.015625 6.140625 -3.015625 Z M 6.140625 -3.015625 "/></g></g></g><g fill="#d80c0c" fill-opacity="1"><g transform="translate(295.441233, 32.595879)"><g><path d="M 20.1875 0.203125 C 18.832031 0.203125 17.835938 -0.15625 17.203125 -0.875 C 16.578125 -1.59375 16.265625 -2.484375 16.265625 -3.546875 C 16.265625 -4.015625 16.320312 -4.539062 16.4375 -5.125 C 16.550781 -5.71875 16.664062 -6.289062 16.78125 -6.84375 C 16.90625 -7.394531 16.988281 -7.75 17.03125 -7.90625 C 17.207031 -8.675781 17.375 -9.4375 17.53125 -10.1875 C 17.6875 -10.945312 17.765625 -11.554688 17.765625 -12.015625 C 17.765625 -13.148438 17.363281 -13.71875 16.5625 -13.71875 C 15.988281 -13.71875 15.476562 -13.429688 15.03125 -12.859375 C 14.59375 -12.296875 14.242188 -11.5625 13.984375 -10.65625 L 11.71875 0 L 6.9375 0 L 9.359375 -11.453125 C 9.429688 -11.722656 9.46875 -12 9.46875 -12.28125 C 9.46875 -13.257812 9.132812 -13.75 8.46875 -13.75 C 7.84375 -13.75 7.300781 -13.460938 6.84375 -12.890625 C 6.394531 -12.328125 6.039062 -11.582031 5.78125 -10.65625 L 3.515625 0 L -1.265625 0 L 2.265625 -16.609375 L 7.046875 -16.609375 L 6.671875 -14.875 C 7.804688 -16.132812 9.15625 -16.765625 10.71875 -16.765625 C 12.664062 -16.765625 13.804688 -15.8125 14.140625 -13.90625 C 15.359375 -15.789062 16.898438 -16.734375 18.765625 -16.734375 C 19.890625 -16.734375 20.785156 -16.421875 21.453125 -15.796875 C 22.117188 -15.179688 22.453125 -14.242188 22.453125 -12.984375 C 22.453125 -12.335938 22.375 -11.617188 22.21875 -10.828125 C 22.0625 -10.046875 21.835938 -9.09375 21.546875 -7.96875 C 21.367188 -7.28125 21.207031 -6.609375 21.0625 -5.953125 C 20.925781 -5.304688 20.859375 -4.796875 20.859375 -4.421875 C 20.859375 -3.972656 20.957031 -3.625 21.15625 -3.375 C 21.351562 -3.132812 21.695312 -3.015625 22.1875 -3.015625 C 22.84375 -3.015625 23.367188 -3.253906 23.765625 -3.734375 C 24.171875 -4.210938 24.570312 -4.945312 24.96875 -5.9375 L 26.359375 -5.9375 C 25.546875 -3.507812 24.601562 -1.878906 23.53125 -1.046875 C 22.457031 -0.210938 21.34375 0.203125 20.1875 0.203125 Z M 20.1875 0.203125 "/></g></g></g><g fill="#d80c0c" fill-opacity="1"><g transform="translate(321.174265, 32.595879)"><g><path d="M 3.984375 0.203125 C 2.722656 0.203125 1.671875 -0.226562 0.828125 -1.09375 C -0.015625 -1.957031 -0.4375 -3.304688 -0.4375 -5.140625 C -0.4375 -6.785156 -0.109375 -8.507812 0.546875 -10.3125 C 1.203125 -12.113281 2.175781 -13.640625 3.46875 -14.890625 C 4.757812 -16.140625 6.304688 -16.765625 8.109375 -16.765625 C 9.015625 -16.765625 9.6875 -16.609375 10.125 -16.296875 C 10.570312 -15.992188 10.796875 -15.585938 10.796875 -15.078125 L 10.796875 -14.84375 L 11.15625 -16.609375 L 15.9375 -16.609375 L 13.546875 -5.3125 C 13.460938 -4.976562 13.421875 -4.625 13.421875 -4.25 C 13.421875 -3.300781 13.875 -2.828125 14.78125 -2.828125 C 15.394531 -2.828125 15.925781 -3.113281 16.375 -3.6875 C 16.832031 -4.257812 17.195312 -5.007812 17.46875 -5.9375 L 18.859375 -5.9375 C 18.035156 -3.550781 17.019531 -1.929688 15.8125 -1.078125 C 14.613281 -0.222656 13.40625 0.203125 12.1875 0.203125 C 11.257812 0.203125 10.507812 -0.0546875 9.9375 -0.578125 C 9.375 -1.097656 9.039062 -1.859375 8.9375 -2.859375 C 8.289062 -1.953125 7.570312 -1.210938 6.78125 -0.640625 C 6 -0.078125 5.066406 0.203125 3.984375 0.203125 Z M 6.140625 -3.015625 C 6.691406 -3.015625 7.238281 -3.273438 7.78125 -3.796875 C 8.320312 -4.316406 8.695312 -5.03125 8.90625 -5.9375 L 10.5 -13.453125 C 10.5 -13.734375 10.382812 -14.007812 10.15625 -14.28125 C 9.9375 -14.5625 9.59375 -14.703125 9.125 -14.703125 C 8.238281 -14.703125 7.441406 -14.1875 6.734375 -13.15625 C 6.023438 -12.132812 5.472656 -10.894531 5.078125 -9.4375 C 4.679688 -7.988281 4.484375 -6.710938 4.484375 -5.609375 C 4.484375 -4.503906 4.644531 -3.796875 4.96875 -3.484375 C 5.289062 -3.171875 5.679688 -3.015625 6.140625 -3.015625 Z M 6.140625 -3.015625 "/></g></g></g></g></g></g></svg>