<?xml version="1.0" encoding="UTF-8" standalone="no"?>
<!-- Created with Inkscape (http://www.inkscape.org/) -->

<svg
   width="300mm"
   height="300mm"
   viewBox="0 0 300 300"
   version="1.1"
   id="svg1"
   xml:space="preserve"
   xmlns="http://www.w3.org/2000/svg"
   xmlns:svg="http://www.w3.org/2000/svg"><defs
     id="defs1" /><g
     id="layer1"><g
       id="g1"
       transform="matrix(1.1706722,0,0,1.1706722,-25.600845,-13.502047)"><g
         id="g39"
         transform="translate(0.867429,-2.714893)"
         style="fill:#d40000"><path
           style="fill:#d40000;fill-opacity:0.970492;stroke-width:0.264583"
           d="m 108.38272,133.98929 c -1.94454,2.48353 -3.9812,6.17802 -5.92574,15.29025 -0.32398,1.45164 -4.277507,1.21813 -7.706533,1.22814 C 68.816919,133.88435 43.282674,116.58541 31.610527,99.43421 27.222646,91.959465 25.263369,87.919446 23.642763,82.521711 44.23384,113.84207 75.939209,133.007 108.38272,133.98929 Z"
           id="path3" /><path
           style="fill:#d40000;fill-opacity:0.970492;stroke-width:0.264583"
           d="m 105.15887,160.56301 c 0.13652,-2.03366 -1.12498,-5.81865 -6.217421,-5.25026 1.860351,1.32557 4.026031,3.25329 6.217421,5.25026 z"
           id="path4" /><path
           style="fill:#d40000;fill-opacity:0.970492;stroke-width:0.264583"
           d="m 98.358086,124.93181 c -2.320661,-1.9633 -4.448975,-4.4205 -6.156016,-6.79288 C 67.372134,113.54247 52.289019,102.05856 38.901108,89.223849 l -6.881909,-2.595523 c 18.71489,24.189684 48.37555,35.396684 66.338887,38.303484 z"
           id="path5" /><path
           style="fill:#d40000;fill-opacity:0.970492;stroke-width:0.264583"
           d="m 200.06837,124.89618 c 2.30204,-2.00986 4.52218,-4.6283 6.41655,-6.53236 24.90924,-4.55683 41.13152,-15.25406 52.95369,-28.871659 1.97635,-0.616867 4.66546,-1.803941 7.18587,-2.856047 -1.35376,2.737054 -9.01223,10.380011 -15.45757,15.904946 -3.7169,3.18611 -7.73712,5.94847 -11.70954,8.68795 -4.75405,3.2785 -9.90628,5.61394 -14.79199,7.75691 -8.83899,3.87695 -17.57175,5.45436 -24.59701,5.91026 z"
           id="path5-9" /><path
           style="fill:#d40000;fill-opacity:0.970492;stroke-width:0.264583"
           d="m 78.6005,215.72153 c -3.102012,-3.20436 -5.514173,-5.71886 -7.982863,-8.2899 -6.756886,-5.72863 -15.001751,7.95163 -17.840063,15.04757 -0.08486,0.21987 0.107367,0.44608 0.629347,0.19321 3.457548,-1.675 8.928139,-2.725 13.771945,-3.3893 4.497572,-0.53607 8.552946,-1.55598 11.421634,-3.56158 z"
           id="path6" /><path
           style="fill:#d40000;fill-opacity:0.970492;stroke-width:0.264583"
           d="m 219.28574,216.71939 c 3.10201,-3.20436 5.51417,-5.71886 7.98286,-8.2899 6.75688,-5.72863 14.80898,7.67937 17.6473,14.77531 0.0682,0.49853 -0.52844,0.4957 -1.11008,0.17766 -3.46664,-1.89554 -9.02481,-2.34875 -13.05167,-2.68054 -4.49757,-0.53607 -8.59972,-1.97693 -11.46841,-3.98253 z"
           id="path6-7" /><path
           style="fill:#d40000;fill-opacity:0.970492;stroke-width:0.264583"
           d="m 59.51071,199.94002 c -2.438884,1.54494 -5.081435,5.1543 -6.332559,6.69333 -6.514614,-4.47126 -26.274743,-20.82769 -32.17708,-32.97537 13.29661,11.10438 22.901901,18.3542 38.509639,26.28204 z"
           id="path7" /><path
           style="fill:#d40000;fill-opacity:0.970492;stroke-width:0.264583"
           d="m 52.756577,208.48619 c -0.828068,2.98881 -2.819441,5.97763 -4.646051,8.96644 -11.646943,-10.65421 -22.289011,-30.07559 -26.004135,-37.2395 11.009894,11.33933 21.183929,19.94838 30.650186,28.27306 z"
           id="path8" /><path
           style="fill:#d40000;fill-opacity:0.970492;stroke-width:0.264583"
           d="m 238.54337,200.91367 c 2.43888,1.54494 5.16203,5.4076 6.41316,6.94663 6.51461,-4.47126 26.40523,-21.08099 32.30757,-33.22867 -13.29661,11.10438 -23.113,18.3542 -38.72073,26.28204 z"
           id="path7-7" /><path
           style="fill:#d40000;fill-opacity:0.970492;stroke-width:0.264583"
           d="m 245.33972,209.49054 c 0.82807,2.98881 3.29534,8.12687 5.01449,9.16601 11.64694,-10.65421 22.08944,-30.30586 25.80457,-37.46977 -11.0099,11.33933 -21.3528,19.97908 -30.81906,28.30376 z"
           id="path8-6" /><path
           style="fill:#d40000;fill-opacity:0.970492;stroke-width:0.264583"
           d="m 116.98733,137.39736 c 20.2921,7.68966 17.8479,29.7984 -3.19315,18.42199 16.77345,0.35188 10.55405,-14.03935 3.19315,-18.42199 z"
           id="path9" /><path
           style="fill:#d40000;fill-opacity:0.970492;stroke-width:0.264583"
           d="m 142.52929,175.61645 -1.8885,-1.62829 c -3.3168,13.65346 -11.94726,28.35104 -26.48684,39.42631 2.39863,-1.98512 25.54199,-13.57794 28.37534,-37.79802 z"
           id="path10" /><path
           style="fill:#d40000;fill-opacity:0.970492;stroke-width:0.264583"
           d="m 155.95843,175.08712 2.14903,-1.41118 c 2.86492,14.1957 12.311,28.82639 26.92105,39.81709 -2.47109,-1.23878 -25.14196,-13.11769 -29.07008,-38.40591 z"
           id="path10-2" /><path
           style="fill:#d40000;fill-opacity:0.970492;stroke-width:0.264583"
           d="m 149.10789,220.36184 c 1.32068,-5.42424 3.34783,-11.63202 8.51053,-18.49737 l -0.0217,-10.06283 -3.67993,3.71251 c -0.22073,0.3336 -0.44145,0.15262 -0.66218,-0.0217 l 1.0204,-20.46217 4.21184,-3.34342 h 0.60789 c 0.84689,6.02303 3.01302,11.38552 5.53672,16.61798 2.50374,5.19109 6.14831,9.78728 11.19314,14.24693 5.79849,5.12589 12.47425,10.43313 20.59054,15.00943 -17.87086,-14.62728 -33.31167,-29.82634 -33.68753,-48.5701 l -4.91253,-14.49197 c -0.77791,-5.62277 0.10222,-8.83194 1.76788,-11.39905 1.9109,-2.94507 4.19061,-5.39244 7.29916,-7.4449 2.13524,-1.40982 4.38794,-2.74915 6.79996,-3.76276 1.76418,-0.74137 3.45767,-1.75429 5.26949,-2.58966 2.60171,-1.19957 4.97141,-2.90463 7.4632,-4.33021 1.23168,-0.70466 2.40942,-1.50022 3.63916,-2.20682 2.91078,-1.6725 5.5124,-3.24223 7.73687,-5.01848 5.52596,-3.70975 9.50335,-7.59581 13.14376,-11.16721 4.36622,-4.28346 7.71498,-8.559471 10.37498,-12.750672 -12.02299,12.048192 -23.62466,22.198832 -44.42989,31.750312 -2.11982,1.20911 -4.53236,1.99192 -6.49335,3.14264 -3.66464,2.15042 -7.16055,3.71042 -10.08118,5.97418 -0.22153,0.17171 -0.39915,0.3847 -0.58756,0.57568 -3.18548,3.22891 -4.2806,6.19678 -5.18789,8.92728 -1.08469,3.26439 -1.11194,1.58786 -3.08553,13.53887 -0.0348,0.5164 -0.3416,0.43143 -0.51428,0.21493 -0.25148,-2.21559 0.36312,-9.96548 1.73562,-13.57071 1.01311,-2.66122 2.25352,-6.00803 3.33841,-7.98678 0.48567,-0.88581 1.10782,-1.77848 2.00907,-2.43596 4.02491,-2.93626 4.54669,-3.14474 5.35491,-3.43793 0.29393,-0.10663 1.01167,-0.5084 1.31392,-0.63573 2.85341,-1.20205 6.09215,-2.36316 10.65243,-4.74665 3.98539,-1.87494 7.73067,-4.22984 11.60562,-6.46028 17.47668,-10.05967 25.55084,-18.39778 33.2049,-26.626559 -15.94131,13.289119 -33.59605,23.284869 -52.76312,32.656989 -3.60669,0.76169 -5.96886,2.16362 -8.77288,3.83747 -2.91638,1.74093 -6.26526,4.07728 -9.06663,7.27396 h -0.69473 c -3.54767,-5.32768 -12.63823,-8.89228 -20.82587,-12.78602 -18.05611,-8.58682 -26.50152,-14.15114 -32.095031,-18.06125 -7.588568,-5.304751 -9.141161,-5.986713 -17.898847,-13.073113 8.72698,9.865483 25.803488,23.576673 45.809208,33.412503 4.1322,2.24123 8.37089,4.53028 12.59957,6.20481 6.66506,2.63931 9.65667,8.40012 10.90115,26.07916 -0.164,1.079 -0.45588,0.40839 -0.57569,-0.11975 -1.13132,-5.79021 -2.32432,-11.62527 -5.21956,-18.69833 -2.58456,-3.37863 -8.43241,-7.36784 -18.22125,-11.89261 -16.69681,-6.62418 -31.91335,-18.31141 -45.857903,-32.575876 9.997285,10.795426 14.339673,20.554116 42.813153,34.736846 9.01197,4.91992 14.67203,8.79968 17.49895,11.88839 4.62685,5.05533 2.94002,9.22649 2.57631,12.8295 -0.20293,2.0103 -2.75719,10.10363 -4.96473,15.49 0.0905,15.22873 -11.04183,31.13763 -32.56579,47.67632 20.13359,-10.53545 33.43539,-24.8735 36.22945,-45.06019 0.55896,-1.13901 0.56294,-0.78265 0.77537,-0.76656 l 4.54123,3.87193 0.87089,20.99873 c -0.17638,0.063 -0.35392,0.0409 -0.55905,-0.0542 l -3.9296,-3.84275 0.0217,9.19983 c 3.10314,4.16423 6.68087,11.16777 8.33686,19.08344 z"
           id="path11" /><path
           style="fill:#d40000;fill-opacity:0.970492;stroke-width:0.264583"
           d="m 99.998679,126.31183 c 1.819451,1.84662 3.795361,3.38034 5.775001,4.90659 -11.31365,-0.73103 -20.346897,-3.1659 -28.164274,-5.8379 -6.281552,-2.14705 -11.644113,-5.22146 -16.766874,-8.17058 -3.910673,-2.25133 -7.206225,-5.09372 -10.64695,-7.5581 -4.075525,-2.91903 -7.321144,-6.39682 -10.519477,-9.714905 -5.831918,-6.050278 -9.539761,-12.08275 -12.595776,-17.283598 2.238054,3.420274 5.220122,6.209611 7.896103,9.376191 2.142345,2.535109 4.402664,4.602251 6.467159,6.658749 1.428565,1.423033 2.981317,2.633983 4.405921,3.972093 1.966012,1.84665 3.972547,3.24602 5.783175,4.76875 3.788116,3.18579 6.068582,4.30472 8.920837,6.41163 1.762936,1.30225 3.949089,2.14297 6.098488,3.25986 4.650663,2.4166 9.374746,4.06841 13.623983,5.37476 3.173533,0.97564 6.087517,1.83268 8.685589,2.33839 4.758712,0.92628 8.564236,1.70543 11.037095,1.49807 z"
           id="path12" /><path
           style="fill:#d40000;fill-opacity:0.970492;stroke-width:0.264583"
           d="m 172.40174,134.81929 c 1.29423,2.21093 3.63565,3.5671 6.66668,3.52018 1.80626,-0.82576 3.57827,-1.68228 5.23302,-2.70235 6.44612,-3.97371 13.57698,-10.36483 20.02721,-17.41186 3.87987,-4.23884 8.00048,-8.80828 11.56082,-12.97263 -0.0536,-0.25577 -0.2093,-0.23056 -0.3843,-0.15235 -3.16611,3.00986 -6.30261,5.59278 -9.32136,8.00715 -3.22275,2.57755 -6.44152,4.78943 -9.54593,6.97883 -8.19651,5.78065 -16.28579,10.21386 -24.23614,14.73303 z"
           id="path13" /><path
           style="fill:#d40000;fill-opacity:0.970492;stroke-width:0.264583"
           d="m 109.2321,195.0869 c -2.26772,3.73175 -5.77271,6.46259 -10.298324,9.03645 -0.918892,0.22483 -1.808232,0.26248 -2.640486,-0.0614 -8.990309,-2.79922 -19.378198,-5.79584 -31.409496,-12.46555 14.199981,1.71928 27.91062,3.65171 43.923876,3.12493 0.42125,0.0631 0.74665,-0.11514 0.42443,0.36557 z"
           id="path14" /><path
           style="fill:#d40000;fill-opacity:0.970492;stroke-width:0.264583"
           d="m 198.15923,126.22135 c -0.81846,1.59375 -2.34068,2.97329 -4.25745,4.76611 -1.47166,1.37649 -3.08395,2.56191 -4.5237,3.92293 5.44284,-0.96622 10.39607,-2.43721 15.11611,-3.75022 6.1786,-1.71876 11.7228,-3.71988 16.77231,-5.83441 8.57751,-3.59192 15.45741,-7.45941 21.19758,-11.34838 6.33578,-4.29249 11.21034,-8.46901 15.18631,-12.38983 7.46706,-7.363482 11.52815,-14.023314 14.67772,-19.761657 -2.15432,2.839443 -4.39586,5.36626 -6.47935,7.823222 -1.72697,2.036524 -3.50691,3.873108 -5.20405,5.658216 -1.44313,1.517935 -2.90779,2.911546 -4.34358,4.245937 -19.13848,17.786822 -40.78241,26.310372 -58.1419,26.668082 z"
           id="path15" /><path
           style="fill:#d40000;fill-opacity:0.970492;stroke-width:0.264583"
           d="m 220.05789,154.92631 c 0.0957,2.60565 -0.32753,4.84809 -1.38947,6.64342 9.67122,-0.50494 19.63792,-5.12215 27.09815,-10.1611 7.22292,-4.87866 11.67944,-9.55691 15.41097,-13.50345 4.72601,-4.99832 6.19732,-7.49062 8.38035,-10.46439 -6.90383,6.48526 -14.18649,12.1791 -23.24393,17.2909 -7.93209,4.47668 -16.60211,7.9823 -26.25607,10.19462 z"
           id="path16" /><path
           style="fill:#d40000;fill-opacity:0.970492;stroke-width:0.264583"
           d="m 273.87362,84.004284 c 0.98531,-1.589843 0.80564,-0.210872 0,2.7633 -3.27828,6.97042 -6.75097,13.979516 -9.10544,17.354116 -3.17986,4.55762 -5.96163,8.69673 -9.12978,12.12456 -4.99868,5.4084 -9.7259,10.24346 -15.591,14.23983 -5.96684,4.0657 -12.60202,7.99965 -21.55267,11.37049 -0.8057,0.11257 -1.61587,0.0546 -2.50756,-0.11941 -0.44028,-0.28108 -0.7022,-0.63322 -0.84586,-1.02295 -0.73843,-2.00316 -2.68917,-3.33142 -4.50976,-4.26947 -1.78674,-0.9206 -3.33309,-1.68568 -5.97329,-2.30756 -1.17119,-0.27586 -2.53383,-0.30309 -4.13984,-0.66088 16.43376,-2.34601 30.24975,-9.01445 44.51696,-19.43065 3.12987,-2.28505 6.33726,-4.8338 9.53699,-7.91852 2.43345,-2.346 5.09094,-4.75422 7.65438,-7.639651 3.7129,-4.179288 7.74811,-8.795084 11.64687,-14.483205 z"
           id="path17" /><path
           style="fill:#d40000;fill-opacity:0.970492;stroke-width:0.264583"
           d="m 217.80319,145.06648 c -0.0104,0.19735 0.0932,0.18751 0.21217,0.2941 0.82248,0.73692 1.28633,1.06678 1.61107,4.30903 0.006,0.0563 -0.004,0.0935 0.0693,0.0741 6.64958,-2.6114 13.12145,-6.36627 19.08553,-10.32564 5.39078,-3.57878 10.4231,-7.66084 14.86496,-12.04089 3.43355,-3.38577 6.68426,-6.88926 9.392,-10.55555 5.26561,-7.12965 8.81105,-12.96292 10.8618,-18.16904 1.66093,-3.800732 0.72242,-2.605822 -0.076,-2.073356 -1.84629,3.284713 -4.15949,6.392886 -6.52339,9.594496 -2.70518,3.66385 -5.84125,7.16311 -9.07768,10.7121 -4.26629,4.67829 -9.24991,8.79755 -14.31341,12.94687 -2.97679,2.43935 -6.20275,4.62093 -9.52061,6.71392 -6.98974,4.4093 -10.90888,5.98699 -16.35507,8.34917 -0.0779,0.0532 -0.17202,0.0468 -0.23065,0.17065 z"
           id="path18" /><path
           style="fill:#d40000;fill-opacity:0.970492;stroke-width:0.264583"
           d="m 170.70586,135.78085 c 2.096,2.05592 4.12965,5.67488 9.37525,4.46851 1.62672,-0.37411 3.20161,-1.6026 4.83613,-2.45375 1.8247,-0.95017 3.70068,-1.52223 5.33563,-1.79202 1.96034,-0.32349 3.88711,-0.59661 5.67109,-0.80151 3.35315,0.12423 6.1168,0.66902 8.44237,1.45773 3.31129,1.123 5.73216,2.74329 7.70654,4.34253 8.12424,6.5806 6.28049,14.21003 6.47033,16.00447 0.32857,3.10581 -2.20285,6.89967 -6.37091,11.67511 -1.15835,1.32714 -2.65676,2.68378 -4.46871,4.13826 -2.24122,1.79906 -4.99603,3.7177 -8.34004,5.77357 -2.25158,1.0496 -3.61309,2.35874 -4.88676,3.72211 -1.94967,2.08695 -3.67047,4.11912 -5.12095,6.14334 -2.49122,3.47665 -3.72264,6.46907 -3.75062,11.83038 -2.23679,-1.9837 -5.06739,-4.30717 -6.1185,-6.96184 3.45331,0.84163 3.12471,-1.08065 3.37345,-2.87735 1.62112,-2.28814 4.52834,-6.42842 8.34415,-10.00065 2.95592,-2.76724 6.55851,-5.39057 10.80506,-7.01537 2.57736,-1.45035 6.42376,-4.28714 9.44795,-7.88291 3.69116,-4.3888 5.77476,-9.74607 3.59642,-15.41759 -0.9864,-2.56817 -2.86078,-5.96892 -7.65325,-8.62483 -2.53575,-1.40528 -5.95458,-2.2905 -10.19237,-2.43038 -2.92075,0.0486 -6.09401,-0.33354 -12.24833,2.69925 -0.49808,0.35012 -0.61699,0.41585 -2.03924,1.45909 -0.92393,1.62131 -2.82527,2.591 -4.85597,3.47446 -1.51438,-0.36897 -3.06938,-0.16921 -4.46719,-2.17009 -2.21843,-2.41087 -3.77177,-3.52219 -6.24843,-6.82575 1.10236,-0.73627 2.17263,-1.64899 3.3569,-1.93477 z"
           id="path19" /><path
           style="fill:#d40000;fill-opacity:0.970492;stroke-width:0.264583"
           d="m 167.24974,141.56862 c 3.08325,6.79271 7.00132,13.11498 12.00547,7.2595 1.05884,-0.99272 2.00009,-2.00702 3.15777,-2.9204 1.11641,-0.88082 2.44392,-1.66288 3.7498,-2.5025 2.49397,-1.60352 5.74769,-2.57296 9.89347,-3.11358 7.22638,0.71216 13.06863,3.05471 16.07343,9.1318 3.53033,7.11956 0.16836,14.02543 -8.39225,20.52174 -0.35306,0.36712 -0.88022,0.77332 -1.72093,1.4632 -0.46113,0.3784 -1.07911,0.5982 -1.70999,0.74654 -1.04487,0.24568 -2.03273,0.91345 -3.06471,1.36961 -2.52135,0.83897 -4.81399,2.12325 -6.69219,3.8786 -0.94173,0.93795 -2.02664,1.8258 -2.12377,3.05937 l -3.743,5.39193 c 0.41421,-1.84612 0.099,-2.43453 1.04359,-5.25565 0.47661,-1.42347 1.01627,-2.97059 2.16469,-4.41068 1.41553,-1.77504 3.06152,-3.73839 6.2469,-5.39956 5.1627,-2.02241 8.69411,-4.99687 11.69289,-8.3432 1.33503,-1.48976 2.28857,-3.18539 2.83589,-5.0723 1.01025,-3.48293 0.93142,-5.56071 -0.0626,-7.57542 -1.22873,-1.66354 -2.53117,-3.00991 -4.04279,-3.67685 -2.39487,-1.05665 -4.91103,-1.72453 -7.01301,-1.79406 -1.57939,-0.0522 -2.87346,-0.12194 -4.44833,0.20792 -3.1541,0.66064 -5.44601,1.46915 -6.93266,2.60677 -1.82759,1.56204 -3.68151,3.14511 -5.27318,4.82889 -1.55102,1.64076 -3.88099,2.35568 -6.33542,2.81096 -2.32553,-0.086 -3.3603,-1.13011 -4.19279,-2.0414 -1.88944,-2.06829 -2.20391,-3.88966 -2.48794,-5.1685 -0.67689,-2.3591 -0.39959,-3.68437 -0.62838,-6.00273 z"
           id="path20" /><path
           style="fill:#d40000;fill-opacity:0.970492;stroke-width:0.264583"
           d="m 216.83577,164.82511 c 7.95942,0.66955 17.08919,-0.28153 26.36566,-2.64339 9.07161,-2.3097 18.87771,-5.19914 28.80004,-9.01755 -11.52615,8.7176 -39.38512,16.9398 -58.25267,16.24462 1.34152,-1.60603 3.07442,-3.3099 3.08697,-4.58368 z"
           id="path21" /><path
           style="fill:#d40000;fill-opacity:0.970492;stroke-width:0.264583"
           d="m 210.63444,172.29163 c 21.87268,-0.75887 42.72656,-7.48384 63.29077,-16.49119 1.62316,-0.44267 0.37088,0.93953 0.0661,1.54113 -11.86903,7.34198 -24.81175,12.02179 -38.00012,16.14799 -13.1243,4.10614 -26.65507,6.90509 -40.03856,9.34049 4.64647,-3.94584 9.69913,-7.18085 14.68176,-10.53842 z"
           id="path22" /><path
           style="fill:#d40000;fill-opacity:0.970492;stroke-width:0.264583"
           d="m 192.32715,186.43386 c 28.24491,-4.57099 54.85607,-14.65587 81.75774,-23.76027 -12.70423,6.74253 -25.50963,12.04083 -38.45079,16.25506 -23.81711,7.75594 -32.73592,9.55177 -46.93913,12.74936 0.0614,-1.9272 1.8244,-3.66622 3.63218,-5.24415 z"
           id="path23" /><path
           style="fill:#d40000;fill-opacity:0.970492;stroke-width:0.264583"
           d="m 198.03335,190.9958 c 1.40598,0.36508 20.81505,-0.46444 31.24381,-0.63308 -11.83309,2.45863 -24.30461,2.54829 -35.82748,2.71278 z"
           id="path24" /><path
           style="fill:#d40000;fill-opacity:0.970492;stroke-width:0.264583"
           d="m 189.24019,194.38512 c 15.09684,0.62998 29.96241,-0.63347 44.31662,-2.47892 -8.15985,4.25458 -16.98971,8.61184 -28.46086,11.27209 -1.59999,0.2907 -2.59688,0.50519 -3.75061,1.1661 -0.29974,0.1717 -1.2782,0.0132 -1.52265,0.083 -4.01434,-2.9355 -8.13924,-5.77745 -10.5825,-10.04232 z"
           id="path25" /><path
           style="fill:#d40000;fill-opacity:0.970492;stroke-width:0.264583"
           d="m 202.9912,205.5169 c 11.72752,-4.20907 23.19568,-8.41942 34.42432,-12.62849 -8.21183,5.07743 -16.53764,9.95639 -27.03432,14.31229 -2.75821,-0.10256 -5.70586,0.0895 -7.39,-1.6838 z"
           id="path26" /><path
           style="fill:#d40000;fill-opacity:0.970492;stroke-width:0.264583"
           d="m 219.34825,205.78334 -6.44135,6.18812 c -1.03009,1.09025 -2.47357,1.76711 -5.23848,1.12253 -8.32395,-2.1471 -15.48173,-6.35212 -20.76684,-12.06722 0.0412,-1.78357 0.36407,-3.36591 0.60803,-5.00463 3.74294,3.98096 9.03927,9.81196 16.18787,11.72357 4.28319,1.14536 9.26631,0.80445 15.65077,-1.96237 z"
           id="path27" /><path
           style="fill:#d40000;fill-opacity:0.970492;stroke-width:0.264583"
           d="m 165.47993,142.28093 c 0.18025,8.67004 2.36178,13.59363 6.87589,13.76051 3.43429,0.12697 8.11839,-1.74812 14.07804,-6.85525 -1.55505,7.1871 -3.56925,13.63262 -6.7352,16.66791 -3.06542,2.88508 -2.70779,7.15259 -2.10607,10.51418 0.65212,3.64318 2.12539,7.21602 4.63177,10.06558 -0.0475,2.15701 0.12848,4.46516 -1.96443,5.23848 -2.18601,-0.38699 -3.42529,-3.47892 -4.77076,-6.26747 -1.28738,-2.88628 -2.74205,-5.67215 -3.59305,-8.36007 -0.31892,-1.00736 -0.13093,-1.96076 -0.42936,-2.9588 0.65386,-4.90524 3.06537,-8.653 6.26747,-11.88013 1.17226,-0.95827 2.23882,-1.71605 2.06967,-3.89378 -5.33619,1.05904 -9.05201,-0.0533 -11.527,-2.10471 -4.18879,-3.47193 -3.66311,-9.76048 -2.79697,-13.92645 z"
           id="path28" /><path
           style="fill:#d40000;fill-opacity:0.970492;stroke-width:0.264583"
           d="m 165.20157,139.06593 c -1.94866,5.84781 -3.84538,12.65 -0.57085,16.53064 2.81439,3.33533 6.52725,5.09094 13.43386,4.60864 -3.80304,2.96476 -9.1207,5.87903 -8.3013,13.85755 2.42194,7.62764 4.52627,15.29433 9.49193,22.15886 2.77274,3.72668 6.36124,6.72625 10.21383,9.58602 5.01122,3.71981 9.02545,5.87687 16.04606,9.04229 4.67006,0.31312 7.33179,-0.49764 9.52055,-2.40952 2.53684,-2.21593 4.76734,-4.79919 6.83283,-7.48187 7.18198,-5.35434 14.20981,-7.63039 21.61433,4.06229 2.17653,4.58019 4.29393,9.17221 6.89433,13.66762 0.25461,0.82847 -0.21518,0.83261 -1.23886,0.20647 -3.82155,-4.71126 -6.33522,-9.09329 -9.35964,-14.60169 -4.20446,-4.86291 -7.18481,-6.52713 -14.55208,-1.52136 l -7.40833,7.60677 -1.25677,2.18282 c -5.51146,4.61766 -17.16996,1.28464 -24.07709,-5.42396 -7.40102,-4.84671 -13.23106,-11.59477 -18.35782,-18.36585 -5.80381,-7.91545 -8.09204,-15.8309 -9.525,-23.74635 -3.10899,-6.19635 -4.77803,-11.28367 -5.00538,-16.39815 -0.29317,-6.59495 1.00096,-11.19267 5.6054,-13.56122 z"
           id="path29" /><path
           style="fill:#d40000;fill-opacity:0.970492;stroke-width:0.264583"
           d="m 109.98544,158.67292 c 3.53057,3.05396 8.33137,3.93776 11.50157,6.20165 3.10389,2.21654 5.30632,4.89998 5.54619,8.55662 -3.75999,18.37432 -12.38098,25.5473 -21.04179,32.65833 -1.15832,0.75499 -2.33092,1.48062 -3.50656,2.14841 -1.3282,0.75445 -2.70084,1.4458 -4.015049,2.02417 -3.239609,1.42571 -6.024711,2.82309 -8.737394,3.32683 -4.153492,0.77129 -8.034756,-3.82006 -10.96808,-8.84378 3.308641,2.54631 7.025503,3.98554 10.874542,3.83564 3.170148,-0.12347 6.26846,-1.52142 9.903745,-3.29655 2.262996,-1.10503 4.241086,-2.36901 6.864066,-4.44455 7.56083,-6.36439 12.6452,-14.89569 15.21701,-25.62548 0.33367,-3.07579 -0.43962,-6.51588 -3.22653,-8.95861 -2.27131,-1.99082 -5.24907,-4.9446 -8.41172,-7.58268 z"
           id="path30" /><path
           style="fill:#d40000;fill-opacity:0.970492;stroke-width:0.264583"
           d="m 106.26636,193.35614 -5.05139,-2.5257 c -10.981364,0.55756 -21.739974,10e-4 -32.459885,-0.74835 12.134339,2.46348 24.765297,3.08237 37.511275,3.27405 z"
           id="path31" /><path
           style="fill:#d40000;fill-opacity:0.970492;stroke-width:0.264583"
           d="m 104.39548,168.28626 c 1.11501,6.05202 3.87682,11.48649 8.98025,16.04285 -17.383483,-2.02697 -32.766083,-6.26535 -47.294179,-10.1646 -15.691638,-4.21154 -29.859869,-10.98832 -43.195093,-18.39107 -0.562152,-0.42575 -0.615406,-1.15032 0.132292,-1.19063 13.300702,5.6703 27.057678,9.67212 41.228954,12.96401 13.905855,3.23024 28.684077,4.98312 40.147776,0.73944 z"
           id="path32" /><path
           style="fill:#d40000;fill-opacity:0.970492;stroke-width:0.264583"
           d="m 114.40472,187.3693 c -1.55638,2.06859 -3.43462,3.65438 -5.87146,4.40228 l -1.15004,0.0434 c -16.842824,-4.24393 -31.984013,-9.16714 -48.448463,-14.5246 -14.545846,-4.73316 -26.50605,-9.91298 -35.38947,-15.46909 14.810369,6.24138 30.029102,11.35785 45.890088,15.5614 14.460427,3.83236 29.278088,7.56531 44.969345,9.98658 z"
           id="path33" /><path
           style="fill:#d40000;fill-opacity:0.970492;stroke-width:0.264583"
           d="M 105.23737,162.48651 92.983067,152.29017 C 79.204076,144.96668 67.8027,136.31381 57.120266,127.70895 44.802471,117.78677 34.177215,106.27589 23.8125,93.927082 22.264375,91.853379 21.036751,93.221705 23.680208,97.366665 l 2.778125,5.291665 c 12.6079,13.98142 26.690639,26.97962 41.407291,39.55521 4.233229,3.54888 8.81054,6.79861 13.920858,9.18124 7.855111,3.66236 15.819144,7.17873 23.450888,11.09173 z"
           id="path34" /><path
           style="fill:#d40000;fill-opacity:0.970492;stroke-width:0.264583"
           d="m 28.063301,126.47194 c 0,0 22.883525,9.60113 0,0 z"
           id="path35" /><path
           style="fill:#d40000;fill-opacity:0.970492;stroke-width:0.264583"
           d="m 95.976487,205.47012 c -11.843714,-2.93775 -23.856609,-8.15566 -35.266215,-13.33006 7.214409,5.69378 15.718111,10.6558 26.192414,14.49937 4.136316,0.79995 7.125871,-0.0435 9.073801,-1.16931 z"
           id="path36" /><path
           style="fill:#d40000;fill-opacity:0.970492;stroke-width:0.264583"
           d="m 98.034461,162.86068 c -4.618351,-5.09003 -10.93533,-6.27321 -17.27777,-7.39783 -9.862724,-2.68603 -17.651011,-6.33105 -24.629592,-9.99109 -10.852481,-5.69178 -19.756834,-11.98851 -28.4276,-19.04895 7.996617,7.80003 16.075694,15.4799 25.454167,21.67842 7.468735,4.93632 15.799228,9.8157 26.45256,13.54338 6.179213,1.31705 12.414134,4.02682 18.428235,1.21607 z"
           id="path37" /><path
           style="fill:#d40000;fill-opacity:0.970492;stroke-width:0.264583"
           d="m 102.61813,165.57347 c -5.664693,1.87103 -11.777732,1.92902 -17.726757,2.0052 -20.297029,0.25992 -39.177648,-5.53694 -57.295795,-14.72723 19.612102,7.17742 41.617371,13.05223 75.022552,12.72203 z"
           id="path38" /><path
           style="fill:#d40000;fill-opacity:0.970492;stroke-width:0.264583"
           d="m 80.167492,102.80522 c 6.444364,6.47792 13.246615,12.78461 20.620398,17.51432 6.78271,4.35058 13.61615,9.08878 21.54637,12.89797 4.83466,2.55235 10.40955,3.89087 13.34283,8.07694 1.93337,2.7591 4.14932,5.37602 2.99436,13.96175 -0.30643,3.218 -1.64725,8.29825 -4.43533,13.03006 -2.24652,18.2036 -10.44432,26.36443 -18.1476,35.35975 -8.25529,7.61035 -16.510577,11.91335 -24.765865,15.69207 -0.754711,0.14706 -3.1136,0.17236 -4.064591,-0.0232 -1.654517,-0.3403 -3.760018,-1.0479 -5.897879,-3.34436 -4.441005,-6.16559 -9.137391,-10.8169 -13.547147,-11.66832 -3.787292,-0.73123 -7.325564,0.88753 -10.635239,7.0641 l -2.294364,3.63418 c -1.544058,2.84796 -3.722157,5.31549 -5.679117,7.91571 -0.846704,0.73141 -1.150219,0.35837 -0.982215,-0.0935 1.085126,-1.73702 1.891765,-3.72243 3.069647,-5.5361 1.768549,-2.72315 3.040385,-6.28169 4.554216,-9.43099 3.059443,-5.24593 6.260734,-7.18994 9.540759,-7.36566 4.48769,-0.24042 9.187212,2.99098 13.705008,8.02047 1.637491,1.69453 3.166051,3.00315 4.493063,4.16589 2.257992,1.97845 3.898587,2.46295 5.286272,2.50235 1.30312,0.037 2.627802,0.0506 4.030955,-0.27716 1.384037,-0.32333 2.822593,-0.90288 4.39143,-1.64138 1.795909,-0.84539 3.345487,-1.5476 5.794827,-3.34622 3.86672,-2.1609 7.38543,-5.15702 10.81484,-8.36745 4.41001,-4.7786 7.91281,-9.98027 10.68769,-15.51211 2.94295,-5.86693 5.46802,-12.83313 3.8644,-17.16393 -3.80179,-3.39903 -8.39863,-6.71844 -13.42407,-9.00253 -6.91859,-3.14454 -13.7535,-5.76373 -18.160568,-6.37638 7.235018,0.51222 15.649998,2.13836 26.392188,7.2099 3.59464,0.98712 6.77133,-0.95832 8.21741,-4.2896 1.19906,-2.76222 1.57794,-7.19089 -1.20595,-10.95702 -2.01585,-3.18051 -6.17219,-6.0321 -11.34401,-8.59895 -14.99844,-9.01296 -27.754087,-20.54906 -38.762718,-34.05056 z"
           id="path39" /></g></g></g></svg>
